<svg xmlns="http://www.w3.org/2000/svg" width="745.099" height="144.06" viewBox="0 0 745.099 144.06">
  <g id="Group_15376" data-name="Group 15376" transform="translate(-209.94 -1164.918)">
    <path id="Path_7005" data-name="Path 7005" d="M248,1269.386c-11.571,0-22.225-.151-32.871.077-4.029.086-5.209-1.292-5.193-5.207q.19-46.722.055-93.445c-.013-9.873,7.414-4.1,11.377-5.2,4.259-1.176,7.12-.2,7.033,5.74-.365,24.793-.011,49.6-.268,74.39-.055,5.3.964,8.16,6.909,7.063,7.763-1.432,12.514.495,11.395,9.641C246.2,1264.41,247.319,1266.532,248,1269.386Z" fill="#050505"/>
    <path id="Path_7006" data-name="Path 7006" d="M269.642,1259.716a9.986,9.986,0,0,1-9.882,10,9.841,9.841,0,0,1-10.162-10.157,10.042,10.042,0,0,1,10.061-9.843A10.194,10.194,0,0,1,269.642,1259.716Z" fill="#e50505"/>
    <path id="Path_7007" data-name="Path 7007" d="M345.576,1240.485c0,6.314-.1,12.631.033,18.942.1,4.839-1.676,11.213-6.506,8.5-12.215-6.853-21.895,3.038-32.7,2.555-12.212-.544-22.512-5-25.134-18.729-2.518-13.182,2.891-21.989,15.44-26.63,2.973-1.1,6.046-1.938,9-3.08,7.186-2.779,19.5,4.013,21.471-5.517,2.138-10.336-10.08-10.285-17.631-12.872-4.151-1.421-4.726-6.175-4.481-9.7.345-4.967,5.083-5.024,8.81-4.87,15.474.641,27.523,6.375,30.167,23.092,1.472,9.3,1.412,18.842,2.043,28.275Zm-28.194-6.927c-7.747,1.134-18.133,1.267-18.9,12.89-.524,7.926,6.585,9.67,13.541,9.367,9.852-.43,14.832-6.235,16.225-15.293C329.5,1232.37,323.459,1233.459,317.382,1233.558Z" fill="#101010"/>
    <g id="Group_15369" data-name="Group 15369">
      <path id="Path_7008" data-name="Path 7008" d="M429.38,1246.41c-6.611-3.349-12.473-3.446-19.907-.031,0-8.559.276-16.226-.066-23.866-.482-10.731-4.9-16.052-13.087-16.595-9.221-.612-16.846,5.316-18.54,15.185-2.319,13.513-1.345,27.229-.75,40.78.387,8.806-4.108,8.23-9.885,7.917-5.17-.28-10.626,1.885-10.192-7.637.925-20.247.252-40.565.306-60.855.012-4.782-1.948-10.7,7.041-9.783,6.542.664,14.464-1.626,11.113,11.677,7.952-8.638,15.343-14.112,25.919-13.723,15.957.588,27.137,11.068,27.964,27.6C429.763,1226.423,429.38,1235.806,429.38,1246.41Z" fill="#060606"/>
      <path id="Path_7009" data-name="Path 7009" d="M429.927,1261.635a9.986,9.986,0,0,1-9.882,10.005,9.842,9.842,0,0,1-10.162-10.158,10.043,10.043,0,0,1,10.061-9.843A10.2,10.2,0,0,1,429.927,1261.635Z" fill="#f9e206"/>
    </g>
    <g id="Group_15370" data-name="Group 15370">
      <path id="Path_7010" data-name="Path 7010" d="M495.889,1264.531c-20.951,10.752-36.688,9.246-48.031-4.595-12.885-15.724-12.521-43.957,1.228-58.682,9-9.635,20.394-14.309,33.15-9.038,7.843,3.24,13.716,5.889,22.542,1.013,6.794-3.753,11.238,1.591,11.041,10.1-.458,19.823.349,39.679-.292,59.492-1.25,38.6-19.3,52.021-58.586,43.876,2.526-7.358,1.641-15.549,14.783-14.891C491.4,1292.79,495.994,1286.257,495.889,1264.531Zm-.243-33.539c-1.771-13.025-6.234-24.649-21.964-23.891-14.265.688-19.364,11.21-19.215,24.086.147,12.755,5.256,23.595,19.388,24.122C489.333,1255.886,493.953,1244.152,495.646,1230.992Z" fill="#161616"/>
      <path id="Path_7011" data-name="Path 7011" d="M455.842,1291.389a9.987,9.987,0,0,1-9.883,10,9.841,9.841,0,0,1-10.161-10.157,10.041,10.041,0,0,1,10.06-9.843A10.2,10.2,0,0,1,455.842,1291.389Z" fill="#d4f938"/>
    </g>
    <g id="Group_15371" data-name="Group 15371">
      <path id="Path_7012" data-name="Path 7012" d="M569,1269.451a41.249,41.249,0,1,1,.359-82.5c22.463.053,41.422,18.855,41.428,41.087C610.8,1251.164,592.367,1269.428,569,1269.451Zm24.161-41.083c.1-13.417-10.554-24.087-24.28-24.311-12.83-.21-24.12,11.307-24.132,24.617-.012,12.627,11.023,23.566,23.966,23.758A24.061,24.061,0,0,0,593.163,1228.368Z" fill="#080808"/>
      <path id="Path_7013" data-name="Path 7013" d="M579.654,1229a9.986,9.986,0,0,1-9.882,10,9.842,9.842,0,0,1-10.162-10.158,10.044,10.044,0,0,1,10.061-9.843A10.2,10.2,0,0,1,579.654,1229Z" fill="#0bf932"/>
    </g>
    <g id="Group_15372" data-name="Group 15372">
      <path id="Path_7014" data-name="Path 7014" d="M614.328,1188.333c20.328-1.484,20.279-1.465,26.865,15.651,4.871,12.659,9.89,25.262,15.172,38.728,6.437-11.176,8.572-23.449,14.121-34.736,4.734,2.074,7.809,7.2,13.723,6.943,3.668-.158,2.589,2.721,1.864,4.528-5.838,14.547-11.242,29.306-17.974,43.441-3.271,6.87-11.014,1.669-16.571,2.967-3.179.743-5.7-.19-7.142-3.781C634.6,1237.788,624.641,1213.572,614.328,1188.333Z"/>
      <path id="Path_7015" data-name="Path 7015" d="M693.87,1196.37a9.987,9.987,0,0,1-9.883,10,9.841,9.841,0,0,1-10.161-10.157,10.042,10.042,0,0,1,10.06-9.844A10.2,10.2,0,0,1,693.87,1196.37Z" fill="#07a3e0"/>
    </g>
    <g id="Group_15373" data-name="Group 15373">
      <path id="Path_7016" data-name="Path 7016" d="M782.231,1231.756h-59.2c.036,13.3,12.363,20.886,30.081,18.89.993,2.414,1.7,5.043,3.087,7.248,1.4,2.227,3.463,4.035,5.219,6.008-10.608,7.255-34.731,3.372-46.564-7.641-13.6-12.654-16.242-36.462-5.958-53.623,9.593-16.007,30.946-23.282,49.621-16.908C775.576,1191.553,784.723,1208.947,782.231,1231.756Zm-19.317-14.427c.324-11.409-6.614-18.746-17.66-19.007-12.548-.3-22.21,7.826-22.261,19.007Z"/>
      <path id="Path_7017" data-name="Path 7017" d="M780.473,1249.218a9.987,9.987,0,0,1-9.882,10.005,9.843,9.843,0,0,1-10.162-10.158,10.043,10.043,0,0,1,10.061-9.843A10.194,10.194,0,0,1,780.473,1249.218Z" fill="#4d63ff"/>
    </g>
    <g id="Group_15374" data-name="Group 15374">
      <path id="Path_7018" data-name="Path 7018" d="M820.83,1199.731c.552-.585,1.1-1.172,1.656-1.755,2.816-2.965,5.051-6.754,9.541-7.45a1.9,1.9,0,0,1,1.543,2.657c-2.7,4.717,5.054,11.391-3.96,15.406-8.119,3.616-9.17,12.288-9.352,20.318-.24,10.57-.358,21.161.061,31.72.215,5.4-1.064,7.264-6.92,7.141-12.672-.265-12.68.11-12.681-12.172q0-28.1,0-56.2c0-5.223-1.745-11.1,7.678-10.084C815.252,1190.049,822.851,1188.171,820.83,1199.731Z" fill="#040404"/>
      <path id="Path_7019" data-name="Path 7019" d="M857.034,1193.49a9.987,9.987,0,0,1-9.883,10.005,9.842,9.842,0,0,1-10.161-10.158,10.042,10.042,0,0,1,10.061-9.843A10.2,10.2,0,0,1,857.034,1193.49Z" fill="#702bf7"/>
    </g>
    <g id="Group_15375" data-name="Group 15375">
      <path id="Path_7020" data-name="Path 7020" d="M914.981,1245.08c5.843-16.971,11.529-31.837,15.97-47.06,2.309-7.915,6.193-10.825,14.137-9.487,2.892.487,5.937.079,9.951.079-9.344,23.851-18.286,46.843-27.367,69.78-4.33,10.939-8.729,21.859-13.466,32.628-3.525,8.01-9.937,12.672-18.774,14.156-.747-11.417-.225-22.172,6.524-31.741,3.144-4.457,1.8-8.844-.289-13.562-9.544-21.508-18.6-43.227-28.185-64.717-2.311-5.184-1.877-6.633,4.179-6.672,14.752-.1,14.779-.371,20.387,13.724C903.482,1215.865,908.849,1229.547,914.981,1245.08Z" fill="#080808"/>
      <path id="Path_7021" data-name="Path 7021" d="M888.707,1295.228a9.985,9.985,0,0,1-9.882,10,9.841,9.841,0,0,1-10.162-10.157,10.042,10.042,0,0,1,10.061-9.843A10.2,10.2,0,0,1,888.707,1295.228Z" fill="#c806f7"/>
    </g>
    <path id="Path_7022" data-name="Path 7022" d="M300.28,1199.184a9.988,9.988,0,0,1-9.883,10.005,9.841,9.841,0,0,1-10.161-10.158,10.042,10.042,0,0,1,10.061-9.843A10.2,10.2,0,0,1,300.28,1199.184Z" fill="#ffa300"/>
  </g>
</svg>
