 <svg xmlns="http://www.w3.org/2000/svg" width="411.763" height="335.964" viewBox="0 0 411.763 335.964">
  <g id="Group_13968" data-name="Group 13968" transform="translate(-4799.237 -1550.71)">
    <g id="Group_13963" data-name="Group 13963">
      <g id="Group_13961" data-name="Group 13961">
        <g id="Group_13950" data-name="Group 13950">
          <g id="Group_13949" data-name="Group 13949">
            <path id="Path_6246" data-name="Path 6246" d="M5011.545,1614.487c-.963-7.379-4.607-17.032-7.47-20.33-11.164-12.859-25.647-21.583-51.49-23.558-51.147-6.594-57.11,97.087-57.11,97.087s63.919,21.306,121.468,27.017C5016.943,1694.7,5015.841,1629.748,5011.545,1614.487Z" fill="#1d234a" stroke="#1d234a" stroke-miterlimit="10" stroke-width="1.433"/>
          </g>
          <path id="Path_6247" data-name="Path 6247" d="M5006.161,1598.582c11.2,30.617,14.077,63.393,14.516,96.341" fill="none" stroke="#1d234a" stroke-miterlimit="10" stroke-width="0.198"/>
        </g>
        <g id="Group_13955" data-name="Group 13955">
          <g id="Group_13951" data-name="Group 13951">
            <path id="Path_6248" data-name="Path 6248" d="M4961.766,1787.613l12.891,3.41a7.766,7.766,0,0,0,9.7-8.42l-9.455-95.994s-12.527-16.976-12.137-22.661c.537-7.847,12.332,3.861,12.332,3.861s30.359-39.392,34.657-31.094c5.631,10.869-.659,34.265-9.884,46.127,16.442,46.726,45.008,95.166,47.863,129.13,1.956,23.274-12.1,38.749-35.008,32.417h0l-60.017-36.088Z" fill="#f7aeaf"/>
            <path id="Path_6249" data-name="Path 6249" d="M5009.753,1636.715s1.229,56.077-34.852,49.894l.2-18.8S5002.489,1631.663,5009.753,1636.715Z" fill="#f7aeaf" opacity="0.5" style="mix-blend-mode: multiply;isolation: isolate"/>
          </g>
          <circle id="Ellipse_96" data-name="Ellipse 96" cx="20.212" cy="20.212" r="20.212" transform="translate(4963.336 1636.75) rotate(-12.463)" fill="#fff"/>
          <path id="Path_6250" data-name="Path 6250" d="M4941.484,1623.126a1.441,1.441,0,0,1-1.856.934c-3.231-1.143-7.564-2.286-11.572,5.812-4.052,8.187,3.639,13.186,8.452,15.165a5.726,5.726,0,0,1,3.078,3.044c1.832,4.24,5.816,12.61,3.123,21.791-5.521,18.827-16.831,34.059-16.831,34.059s32.581,20.594,51.163,15.386c0,0-.162-49.495,5.748-49.711,10.437-.381,24.168-2.8,28.456-38.029,4.042-33.2-22.02-39.509-28.018-40.478C4978.167,1590.281,4953.738,1584.306,4941.484,1623.126Z" fill="#ffb3b5"/>
          <path id="Path_6251" data-name="Path 6251" d="M4981.915,1669.926s-2.77,1.332-21.7-9.354c-4.082-2.3,17.411,28.336,18.34,22.765C4980.135,1673.832,4981.915,1669.926,4981.915,1669.926Z" fill="#1d234a"/>
          <g id="Group_13952" data-name="Group 13952">
            <path id="Path_6252" data-name="Path 6252" d="M5007.634,1606.047s-42.351,39.469-67.479,18.067C4926.859,1612.791,4969.753,1553.6,5007.634,1606.047Z" fill="#1d234a"/>
            <path id="Path_6253" data-name="Path 6253" d="M4941.1,1624c3.434,4.107,14.8,9.22,20.109,8.542,20.647-2.636,36.023-15.815,46.566-26.358" fill="none" stroke="#1d234a" stroke-miterlimit="10" stroke-width="0.198"/>
          </g>
          <g id="Group_13954" data-name="Group 13954">
            <path id="Path_6254" data-name="Path 6254" d="M4932.6,1630.564s8.463-8.585,9.843,7.355" fill="#e06578"/>
            <path id="Path_6255" data-name="Path 6255" d="M4998.764,1641.683l-3.624,6.6,3.733,1.172a.95.95,0,0,0,1.217-1.092Z" fill="#e06578"/>
            <path id="Path_6256" data-name="Path 6256" d="M4990.82,1631.016c-1.727,1.1,1.078-4.038,3.4-4.55a4.035,4.035,0,0,1,5,2.7A12.611,12.611,0,0,0,4990.82,1631.016Z" fill="#020c2b"/>
            <path id="Path_6257" data-name="Path 6257" d="M5010.851,1636.715c-1.53-3.134-5.455-6.132-5.455-6.132a3.485,3.485,0,0,1,4.913.371,6.041,6.041,0,0,1,1.2,3.125S5011.207,1637.306,5010.851,1636.715Z" fill="#020c2b"/>
            <path id="Path_6258" data-name="Path 6258" d="M4967.961,1644.227a8.971,8.971,0,1,0,8.07-9.791A8.972,8.972,0,0,0,4967.961,1644.227Z" fill="#ff94a6"/>
            <path id="Path_6259" data-name="Path 6259" d="M5002.91,1659.179c-1.12-1.339-.174-7.193.789-9.505.99-2.376,3.168-4.752,5.222-5.094A53.674,53.674,0,0,1,5002.91,1659.179Z" fill="#ff94a6"/>
            <path id="Path_6260" data-name="Path 6260" d="M5001.626,1651.651a4.909,4.909,0,0,1-5.711,1.977,7.854,7.854,0,0,1-5.272-4.393" fill="none" stroke="#e06578" stroke-linecap="round" stroke-miterlimit="10" stroke-width="0.661"/>
            <g id="Group_13953" data-name="Group 13953">
              <path id="Path_6261" data-name="Path 6261" d="M5002.065,1641.327a2.064,2.064,0,0,0,1.318,1.867,2,2,0,0,0,2.526-.988" fill="none" stroke="#020c2b" stroke-linecap="round" stroke-miterlimit="10" stroke-width="0.661"/>
              <path id="Path_6262" data-name="Path 6262" d="M4996.464,1640.229a2.624,2.624,0,0,1-2.746,1.1,3.8,3.8,0,0,1-2.416-2.2" fill="none" stroke="#020c2b" stroke-linecap="round" stroke-miterlimit="10" stroke-width="0.661"/>
              <line id="Line_24" data-name="Line 24" x2="0.659" y2="1.098" transform="translate(5004.372 1643.304)" fill="none" stroke="#020c2b" stroke-linecap="round" stroke-miterlimit="10" stroke-width="0.661"/>
              <line id="Line_25" data-name="Line 25" x2="0.879" y2="0.714" transform="translate(5005.689 1642.755)" fill="none" stroke="#020c2b" stroke-linecap="round" stroke-miterlimit="10" stroke-width="0.661"/>
              <line id="Line_26" data-name="Line 26" x1="1.318" y2="0.549" transform="translate(4990.149 1639.735)" fill="none" stroke="#020c2b" stroke-linecap="round" stroke-miterlimit="10" stroke-width="0.661"/>
              <line id="Line_27" data-name="Line 27" x1="0.934" y2="0.769" transform="translate(4991.302 1640.613)" fill="none" stroke="#020c2b" stroke-linecap="round" stroke-miterlimit="10" stroke-width="0.661"/>
            </g>
          </g>
        </g>
        <path id="Path_6263" data-name="Path 6263" d="M4977.9,1697.558c-13.429-1.353-35.216,14.454-34.477,36.162,1.5,43.942,9.471,71.019,9.471,71.019s63.067-24.981,62.787-27.227C5008.655,1721.281,5004.3,1702.09,4977.9,1697.558Z" fill="#fff"/>
        <g id="Group_13957" data-name="Group 13957">
          <path id="Path_6264" data-name="Path 6264" d="M5031.759,1867.987c-.358-1.012-17.854-73.473-21.222-88.628-3.529-15.882-21.232-53.011-27.237-67.362h0l-4.36-27.177-39.1-12.3-17.622,34.354c-7.434.7-20.962,9.127-20.962,9.127-8.887,24.912.508,129.742-.146,150.939C4988.674,1866.938,5031.759,1867.987,5031.759,1867.987Z" fill="#fff"/>
          <path id="Path_6265" data-name="Path 6265" d="M5020.216,1867.463s-70.98-158.751-96.725-158.751l-21.851,158.226Z" fill="#1d234a" stroke="#1d234a" stroke-miterlimit="10" stroke-width="1.433"/>
          <rect id="Rectangle_577" data-name="Rectangle 577" width="261" height="51.62" rx="16.52" transform="translate(4851 1835.054)" fill="#fffcbf"/>
          <g id="Group_13956" data-name="Group 13956">
            <path id="Path_6266" data-name="Path 6266" d="M5066.057,1831.254c-52.841,6.12-136.517,6.613-178.305,1.818-23.2-2.662-27.607-27.906-15.082-58.472,7.545-18.411,21.221-52.993,21.221-52.993l47.3,41.416-5.881,11.968a7.767,7.767,0,0,0,6.347,11.167l95.978,9.621,21.96,2.744s40.725,3.3,47.461,30.827C5107.059,1829.35,5071.433,1830.631,5066.057,1831.254Z" fill="#ffb3b5"/>
            <path id="Path_6267" data-name="Path 6267" d="M4965.012,1700.844c-6.214-12.026-27.684-18.138-45.814-5.043-27.772,11.438-53.156,73.364-53.156,73.364s77.073,18.371,78.035,16.255C4967.134,1734.692,4975.626,1725.559,4965.012,1700.844Z" fill="#fff"/>
          </g>
        </g>
        <g id="Group_13959" data-name="Group 13959">
          <g id="Group_13958" data-name="Group 13958">
            <path id="Path_6268" data-name="Path 6268" d="M4946.5,1625.51l-5.433-2.412c6.945-15.648,15.59-35.122,29.2-45.99,4.282-3.418,12.123-5.414,17.474-4.449,9.189,1.657,13.059,5.879,14.687,9.129a11.111,11.111,0,0,1,.288,9.678l-5.272-5.052c.415-.829.541-.222-.332-1.963-1.442-2.88-5.145-4.99-10.426-5.942-3.689-.665-9.75.882-12.71,3.245C4961.506,1591.715,4953.189,1610.454,4946.5,1625.51Z" fill="#fff"/>
          </g>
          <circle id="Ellipse_97" data-name="Ellipse 97" cx="18.405" cy="18.405" r="18.405" transform="matrix(0.958, -0.287, 0.287, 0.958, 4917.39, 1627.585)" fill="#fff"/>
          <circle id="Ellipse_98" data-name="Ellipse 98" cx="13.933" cy="13.933" r="13.933" transform="translate(4920.813 1637.013) rotate(-36.452)" fill="#fff" stroke="#1d234a" stroke-miterlimit="10" stroke-width="0.661"/>
        </g>
        <g id="Group_13960" data-name="Group 13960">
          <path id="Path_6269" data-name="Path 6269" d="M4943.36,1659.339c-2.077,7.539-.9,13.4,1.343,20.9a88.868,88.868,0,0,0,10.461,22.708c6.079,9.421,13.874,17.59,20.862,26.358s13.314,18.451,15.7,29.406.2,23.432-7.861,31.224" fill="none" stroke="#1d234a" stroke-miterlimit="10" stroke-width="0.661"/>
          <path id="Path_6270" data-name="Path 6270" d="M4992.747,1672.126a67.934,67.934,0,0,1-.324,38.2c-1.758,5.78-4.29,11.316-5.772,17.173s-1.837,12.272.692,17.758" fill="none" stroke="#1d234a" stroke-miterlimit="10" stroke-width="0.661"/>
          <rect id="Rectangle_578" data-name="Rectangle 578" width="7.468" height="5.272" transform="translate(4989.155 1671.308) rotate(-8.024)" fill="#fff"/>
          <rect id="Rectangle_579" data-name="Rectangle 579" width="7.468" height="5.272" transform="translate(4938.854 1657.03) rotate(-8.024)" fill="#fff"/>
        </g>
      </g>
      <g id="Group_13962" data-name="Group 13962">
        <path id="Path_6271" data-name="Path 6271" d="M4999.228,1579.249a11.9,11.9,0,0,1,3.636,10.8" fill="none" stroke="#fffcbf" stroke-miterlimit="10" stroke-width="2.156"/>
        <path id="Path_6272" data-name="Path 6272" d="M4997.929,1588.2a23.7,23.7,0,0,1,8.122,9.631,70.8,70.8,0,0,1,4.247,12.007" fill="none" stroke="#fffcbf" stroke-miterlimit="10" stroke-width="2.156"/>
        <path id="Path_6273" data-name="Path 6273" d="M5013.452,1632.394a465.2,465.2,0,0,1,2.1,58.956" fill="none" stroke="#fffcbf" stroke-miterlimit="10" stroke-width="2.156"/>
        <path id="Path_6274" data-name="Path 6274" d="M4998.64,1685.429c16.9,35.952,33.841,72.006,46.393,109.7" fill="none" stroke="#fffcbf" stroke-miterlimit="10" stroke-width="2.156"/>
        <path id="Path_6275" data-name="Path 6275" d="M5062.063,1799.52c8.943,1.815,18.015,3.673,26.137,7.834s15.315,10.992,17.815,19.768" fill="none" stroke="#fffcbf" stroke-miterlimit="10" stroke-width="2.156"/>
      </g>
    </g>
    <g id="Group_13964" data-name="Group 13964">
      <circle id="Ellipse_99" data-name="Ellipse 99" cx="2.868" cy="2.868" r="2.868" transform="translate(4972.351 1558.724)" fill="#fff"/>
      <circle id="Ellipse_100" data-name="Ellipse 100" cx="5.497" cy="5.497" r="5.497" transform="translate(5014.045 1593.376) rotate(-45)" fill="none" stroke="#fff" stroke-miterlimit="10" stroke-width="0.719"/>
      <circle id="Ellipse_101" data-name="Ellipse 101" cx="2.39" cy="2.39" r="2.39" transform="translate(4907.348 1683.949)" fill="none" stroke="#fff" stroke-miterlimit="10" stroke-width="0.719"/>
      <circle id="Ellipse_102" data-name="Ellipse 102" cx="6.691" cy="6.691" r="6.691" transform="translate(5027.864 1713.292) rotate(-76.663)" fill="none" stroke="#fff" stroke-miterlimit="10" stroke-width="0.719"/>
      <path id="Path_6276" data-name="Path 6276" d="M5021.1,1701.4a2.151,2.151,0,1,1-2.151-2.151A2.151,2.151,0,0,1,5021.1,1701.4Z" fill="#fff"/>
    </g>
    <g id="Group_13967" data-name="Group 13967">
      <g id="Group_13965" data-name="Group 13965">
        <path id="Path_6277" data-name="Path 6277" d="M4851.336,1678.005l-51.779,31.784.08-32.82Z" fill="#7d82ff"/>
        <path id="Path_6278" data-name="Path 6278" d="M4799.876,1659.365h51.46v18.64l-52.1.239" fill="#adb0ff" stroke="#fff" stroke-miterlimit="10" stroke-width="0.719"/>
        <path id="Rectangle_580" data-name="Rectangle 580" d="M0,0H17.844a0,0,0,0,1,0,0V15.935a8.918,8.918,0,0,1-8.918,8.918H8.918A8.918,8.918,0,0,1,0,15.935V0A0,0,0,0,1,0,0Z" transform="translate(4817.8 1634.113)" fill="none" stroke="#fff" stroke-miterlimit="10" stroke-width="0.719"/>
        <path id="Path_6279" data-name="Path 6279" d="M4820.749,1633.464c-.259-4.934-.49-10.052,1.351-14.637a8,8,0,0,1,2.806-3.838,3.943,3.943,0,0,1,4.516-.028,4.584,4.584,0,0,1,1.417,3.606c0,1.335-.3,2.654-.349,3.988a2.187,2.187,0,0,0,.281,1.353c.578.817,1.85.617,2.741.161s1.817-1.1,2.8-.9c1.2.252,1.771,1.641,1.874,2.86a8.541,8.541,0,0,1-3.828,7.746" fill="#fff88a"/>
      </g>
      <g id="Group_13966" data-name="Group 13966">
        <path id="Path_6280" data-name="Path 6280" d="M5211,1748.191h-70.134V1551.033H5211" fill="#b0b6fc" stroke="#fff" stroke-miterlimit="10" stroke-width="0.646"/>
        <path id="Path_6281" data-name="Path 6281" d="M5210.694,1761.1h-78.558v-15.773h78.558" fill="#fffcbf"/>
        <line id="Line_28" data-name="Line 28" x2="70.887" y2="0.717" transform="translate(5140.072 1690.119)" fill="none" stroke="#fff" stroke-miterlimit="10" stroke-width="0.756"/>
        <line id="Line_29" data-name="Line 29" x2="70.622" transform="translate(5140.072 1601.219)" fill="none" stroke="#fff" stroke-miterlimit="10" stroke-width="0.756"/>
      </g>
    </g>
  </g>
</svg>
