<svg xmlns="http://www.w3.org/2000/svg" xmlns:xlink="http://www.w3.org/1999/xlink" width="267.463" height="294.146" viewBox="0 0 267.463 294.146">
  <defs>
    <clipPath id="clip-path">
      <path id="Path_6234" data-name="Path 6234" d="M5612.008,824.824c-9.067-.914-19.721,8.446-19.221,23.1,1.011,29.67,6.394,47.952,6.394,47.952s54.132-21.637,53.311-22.926C5632.795,842.065,5629.831,827.884,5612.008,824.824Z" fill="#7d82ff"/>
    </clipPath>
  </defs>
  <g id="Group_13947" data-name="Group 13947" transform="translate(-5532.311 -694.596)">
    <g id="Group_13917" data-name="Group 13917">
      <g id="Group_13905" data-name="Group 13905">
        <circle id="Ellipse_89" data-name="Ellipse 89" cx="68.375" cy="68.375" r="68.375" transform="translate(5633.858 848.826) rotate(-10.96)" fill="#e0dbff" stroke="#fff88a" stroke-miterlimit="10" stroke-width="9.663"/>
        <g id="Group_13903" data-name="Group 13903" opacity="0.52">
          <path id="Path_6178" data-name="Path 6178" d="M5709.521,908.817a7.37,7.37,0,1,1,10.328-1.4A7.369,7.369,0,0,1,5709.521,908.817Z" fill="#5165e3"/>
          <line id="Line_14" data-name="Line 14" x1="32.405" y1="24.677" transform="translate(5675.718 873.812)" fill="none" stroke="#5165e3" stroke-linecap="round" stroke-miterlimit="10" stroke-width="6.04"/>
          <line id="Line_15" data-name="Line 15" y1="24.804" x2="15.282" transform="translate(5713.272 876.702)" fill="none" stroke="#5165e3" stroke-linecap="round" stroke-miterlimit="10" stroke-width="6.04"/>
        </g>
        <g id="Group_13904" data-name="Group 13904">
          <line id="Line_16" data-name="Line 16" x2="4.744" y2="3.613" transform="translate(5663.473 862.989)" fill="none" stroke="#464c6b" stroke-linecap="round" stroke-miterlimit="10" stroke-width="0.897"/>
          <line id="Line_17" data-name="Line 17" x2="4.744" y2="3.613" transform="translate(5760.566 936.927)" fill="none" stroke="#464c6b" stroke-linecap="round" stroke-miterlimit="10" stroke-width="0.897"/>
          <line id="Line_18" data-name="Line 18" y1="0.8" x2="5.909" transform="translate(5650.969 909.55)" fill="none" stroke="#464c6b" stroke-linecap="round" stroke-miterlimit="10" stroke-width="0.897"/>
          <line id="Line_19" data-name="Line 19" y1="0.8" x2="5.909" transform="translate(5771.906 893.178)" fill="none" stroke="#464c6b" stroke-linecap="round" stroke-miterlimit="10" stroke-width="0.897"/>
          <line id="Line_20" data-name="Line 20" y1="4.744" x2="3.613" transform="translate(5675.616 947.939)" fill="none" stroke="#464c6b" stroke-linecap="round" stroke-miterlimit="10" stroke-width="0.897"/>
          <line id="Line_21" data-name="Line 21" y1="4.744" x2="3.613" transform="translate(5749.555 850.846)" fill="none" stroke="#464c6b" stroke-linecap="round" stroke-miterlimit="10" stroke-width="0.897"/>
          <line id="Line_22" data-name="Line 22" x1="0.8" y1="5.909" transform="translate(5722.178 959.278)" fill="none" stroke="#464c6b" stroke-linecap="round" stroke-miterlimit="10" stroke-width="0.897"/>
          <line id="Line_23" data-name="Line 23" x1="0.8" y1="5.909" transform="translate(5705.806 838.341)" fill="none" stroke="#464c6b" stroke-linecap="round" stroke-miterlimit="10" stroke-width="0.897"/>
        </g>
      </g>
      <g id="Group_13916" data-name="Group 13916">
        <g id="Group_13909" data-name="Group 13909">
          <g id="Group_13906" data-name="Group 13906">
            <circle id="Ellipse_90" data-name="Ellipse 90" cx="30.814" cy="30.814" r="30.814" transform="matrix(0.227, -0.974, 0.974, 0.227, 5718.235, 797.903)" fill="none" stroke="#5165e3" stroke-miterlimit="10" stroke-width="1" opacity="0.52"/>
          </g>
          <g id="Group_13908" data-name="Group 13908">
            <g id="Group_13907" data-name="Group 13907">
              <rect id="Rectangle_574" data-name="Rectangle 574" width="48.71" height="35.942" transform="translate(5736.799 756.042)" fill="#fff88a"/>
              <path id="Path_6179" data-name="Path 6179" d="M5736.777,756.073l20.976,22.592a4.782,4.782,0,0,0,6.762-.022l21.114-22.73Z" fill="#5165e3"/>
              <path id="Path_6180" data-name="Path 6180" d="M5736.777,755.436l20.976,20.976a4.782,4.782,0,0,0,6.762-.022l21.114-21.114Z" fill="#fffcbf"/>
              <path id="Path_6181" data-name="Path 6181" d="M5781.483,784.446h-12.4a.607.607,0,0,1-.607-.607h0a.607.607,0,0,1,.607-.608h12.4a.608.608,0,0,1,.608.608h0A.607.607,0,0,1,5781.483,784.446Z" fill="#fff" opacity="0.73"/>
              <path id="Path_6182" data-name="Path 6182" d="M5753.391,781h-12.4a.608.608,0,0,1-.608-.607h0a.608.608,0,0,1,.608-.608h12.4a.607.607,0,0,1,.607.608h0A.607.607,0,0,1,5753.391,781Z" fill="#fff"/>
              <path id="Path_6183" data-name="Path 6183" d="M5753.391,784.228h-12.4a.608.608,0,0,1-.608-.607h0a.608.608,0,0,1,.608-.608h12.4a.607.607,0,0,1,.607.608h0A.607.607,0,0,1,5753.391,784.228Z" fill="#fff"/>
            </g>
            <path id="Path_6184" data-name="Path 6184" d="M5792.555,756.712a8.312,8.312,0,1,0-8.312,8.312A8.312,8.312,0,0,0,5792.555,756.712Z" fill="#ff94a6"/>
          </g>
        </g>
        <g id="Group_13915" data-name="Group 13915">
          <circle id="Ellipse_91" data-name="Ellipse 91" cx="29.898" cy="29.898" r="29.898" transform="translate(5532.998 746.345) rotate(-58.642)" fill="none" stroke="#5165e3" stroke-miterlimit="10" stroke-width="1" opacity="0.52"/>
          <g id="Group_13914" data-name="Group 13914">
            <g id="Group_13912" data-name="Group 13912">
              <rect id="Rectangle_575" data-name="Rectangle 575" width="54.335" height="42.64" rx="4.946" transform="translate(5595.773 757.243) rotate(178.089)" fill="#fff"/>
              <g id="Group_13911" data-name="Group 13911">
                <path id="Path_6185" data-name="Path 6185" d="M5594.709,725.342l-.193-5.772a4.946,4.946,0,0,0-5.108-4.778l-44.419,1.482a4.946,4.946,0,0,0-4.778,5.108l.193,5.772Z" fill="#7d82ff"/>
                <g id="Group_13910" data-name="Group 13910">
                  <path id="Path_6186" data-name="Path 6186" d="M5578.117,721.263h0a1.826,1.826,0,0,0,1.765-1.887l-.187-5.6a1.825,1.825,0,0,0-1.887-1.765h0a1.827,1.827,0,0,0-1.766,1.887l.187,5.6A1.828,1.828,0,0,0,5578.117,721.263Z" fill="#19275b" opacity="0.37"/>
                  <path id="Path_6187" data-name="Path 6187" d="M5556.2,721.995h0a1.827,1.827,0,0,0,1.765-1.888l-.186-5.6a1.827,1.827,0,0,0-1.888-1.765h0a1.827,1.827,0,0,0-1.765,1.887l.187,5.6A1.827,1.827,0,0,0,5556.2,721.995Z" fill="#19275b" opacity="0.37"/>
                  <path id="Path_6188" data-name="Path 6188" d="M5578.036,718.828h0a1.827,1.827,0,0,0,1.765-1.887l-.187-5.6a1.828,1.828,0,0,0-1.887-1.766h0a1.828,1.828,0,0,0-1.766,1.888l.187,5.6A1.828,1.828,0,0,0,5578.036,718.828Z" fill="#7d82ff"/>
                  <path id="Path_6189" data-name="Path 6189" d="M5556.119,719.56h0a1.827,1.827,0,0,0,1.765-1.888l-.187-5.6a1.826,1.826,0,0,0-1.887-1.765h0a1.826,1.826,0,0,0-1.765,1.887l.186,5.6A1.829,1.829,0,0,0,5556.119,719.56Z" fill="#7d82ff"/>
                </g>
              </g>
            </g>
            <g id="Group_13913" data-name="Group 13913">
              <path id="Path_6190" data-name="Path 6190" d="M5584,734.714a1.609,1.609,0,1,0,1.554-1.661A1.61,1.61,0,0,0,5584,734.714Z" fill="#151d4d"/>
              <path id="Path_6191" data-name="Path 6191" d="M5572.069,735.112a1.609,1.609,0,1,0,1.554-1.661A1.608,1.608,0,0,0,5572.069,735.112Z" fill="#151d4d"/>
              <path id="Path_6192" data-name="Path 6192" d="M5560.749,734.856a1.608,1.608,0,1,0,1.554-1.662A1.609,1.609,0,0,0,5560.749,734.856Z" fill="#151d4d"/>
              <path id="Path_6193" data-name="Path 6193" d="M5548.817,735.254a1.609,1.609,0,1,0,1.554-1.661A1.608,1.608,0,0,0,5548.817,735.254Z" fill="#151d4d"/>
              <path id="Path_6194" data-name="Path 6194" d="M5584.307,743.871a1.608,1.608,0,1,0,1.554-1.662A1.608,1.608,0,0,0,5584.307,743.871Z" fill="#151d4d"/>
              <path id="Path_6195" data-name="Path 6195" d="M5572.987,743.614a1.609,1.609,0,1,0,1.554-1.661A1.608,1.608,0,0,0,5572.987,743.614Z" fill="#151d4d"/>
              <path id="Path_6196" data-name="Path 6196" d="M5561.054,744.012a1.609,1.609,0,1,0,1.555-1.661A1.609,1.609,0,0,0,5561.054,744.012Z" fill="#151d4d"/>
              <path id="Path_6197" data-name="Path 6197" d="M5549.122,744.411a1.608,1.608,0,1,0,1.554-1.662A1.61,1.61,0,0,0,5549.122,744.411Z" fill="#ff94a6"/>
              <path id="Path_6198" data-name="Path 6198" d="M5547.727,744.457a3,3,0,1,0,2.9-3.1A3,3,0,0,0,5547.727,744.457Z" fill="none" stroke="#ff94a6" stroke-miterlimit="10" stroke-width="0.55"/>
            </g>
          </g>
        </g>
      </g>
    </g>
    <g id="Group_13946" data-name="Group 13946">
      <g id="Group_13940" data-name="Group 13940">
        <g id="Group_13918" data-name="Group 13918">
          <path id="Path_6199" data-name="Path 6199" d="M5638.781,767.421c-.65-4.983-3.111-11.5-5.044-13.727-7.538-8.683-12.85-13.68-30.3-15.014-63.678-4.866-22.945,68.252-22.945,68.252s31.855,4.205,67.459,12.707C5647.951,819.639,5641.681,777.725,5638.781,767.421Z" fill="#1d234a" stroke="#1d234a" stroke-miterlimit="10" stroke-width="0.967"/>
          <path id="Path_6200" data-name="Path 6200" d="M5577.3,746.341a20.824,20.824,0,0,0-7.09,9.714A40.612,40.612,0,0,0,5567.973,768a78.5,78.5,0,0,0,8.194,39.647" fill="none" stroke="#1d234a" stroke-miterlimit="10" stroke-width="0.133"/>
        </g>
        <g id="Group_13921" data-name="Group 13921">
          <circle id="Ellipse_92" data-name="Ellipse 92" cx="7.39" cy="7.39" r="7.39" transform="matrix(0.242, -0.97, 0.97, 0.242, 5611.809, 809.218)" fill="#7d82ff"/>
          <path id="Path_6201" data-name="Path 6201" d="M5591.475,773.253a.973.973,0,0,1-1.253.631c-2.182-.772-5.107-1.543-7.813,3.925-2.736,5.527,2.457,8.9,5.707,10.239a3.863,3.863,0,0,1,2.078,2.055c1.237,2.863,3.927,8.515,2.109,14.713a82.42,82.42,0,0,1-11.365,23s22,13.905,34.546,10.389c0,0-.11-33.42,3.881-33.565,7.047-.257,16.318-1.893,19.213-25.677,2.729-22.414-14.868-26.677-18.917-27.331C5616.244,751.077,5599.749,747.042,5591.475,773.253Z" fill="#ffb3b5"/>
          <path id="Path_6202" data-name="Path 6202" d="M5618.774,804.853s-1.87.9-14.654-6.316c-2.756-1.556,11.756,19.133,12.383,15.371C5617.573,807.49,5618.774,804.853,5618.774,804.853Z" fill="#1d234a"/>
          <circle id="Ellipse_93" data-name="Ellipse 93" cx="9.38" cy="9.38" r="9.38" transform="translate(5577.556 788.841) rotate(-25.771)" fill="#7d82ff"/>
          <g id="Group_13919" data-name="Group 13919">
            <path id="Path_6203" data-name="Path 6203" d="M5636.14,761.722s-28.6,26.649-45.562,12.2C5581.6,766.275,5610.562,726.31,5636.14,761.722Z" fill="#1d234a"/>
            <path id="Path_6204" data-name="Path 6204" d="M5591.217,773.843a19.917,19.917,0,0,0,8.7,6.244,13.54,13.54,0,0,0,10.532-.6c5.195-2.736,7.472-8.835,9.32-14.408" fill="none" stroke="#1d234a" stroke-miterlimit="10" stroke-width="0.134"/>
          </g>
          <g id="Group_13920" data-name="Group 13920">
            <path id="Path_6205" data-name="Path 6205" d="M5585.475,778.276s5.714-5.8,6.646,4.966" fill="#e06578"/>
            <path id="Path_6206" data-name="Path 6206" d="M5630.151,785.783l-2.447,4.457,2.52.791a.641.641,0,0,0,.822-.737Z" fill="#e06578"/>
            <path id="Path_6207" data-name="Path 6207" d="M5625.232,776.505c-1.166.744.728-2.727,2.292-3.073a2.726,2.726,0,0,1,3.373,1.821A8.511,8.511,0,0,0,5625.232,776.505Z" fill="#020c2b"/>
            <path id="Path_6208" data-name="Path 6208" d="M5638.15,780.893a6.317,6.317,0,0,0-3.666-1.843,2.353,2.353,0,0,1,3.227-.806,2.836,2.836,0,0,1,.98,1.544S5638.5,781.2,5638.15,780.893Z" fill="#020c2b"/>
            <path id="Path_6209" data-name="Path 6209" d="M5626.831,785.534c-.221,1.093.03,2.066.56,2.173s1.138-.693,1.359-1.786-.03-2.066-.56-2.173S5627.051,784.441,5626.831,785.534Z" fill="#020c2b"/>
            <path id="Path_6210" data-name="Path 6210" d="M5632.091,786.763c-.21,1.044.029,1.973.535,2.075s1.088-.661,1.3-1.705-.029-1.973-.535-2.075S5632.3,785.719,5632.091,786.763Z" fill="#020c2b"/>
            <path id="Path_6211" data-name="Path 6211" d="M5607.573,786.907a6.057,6.057,0,1,0,5.449-6.61A6.057,6.057,0,0,0,5607.573,786.907Z" fill="#ff94a6"/>
            <path id="Path_6212" data-name="Path 6212" d="M5632.95,797.6c-.756-.9-.117-4.857.533-6.418.669-1.605,2.139-3.209,3.526-3.44A36.24,36.24,0,0,1,5632.95,797.6Z" fill="#ff94a6"/>
            <path id="Path_6213" data-name="Path 6213" d="M5628.309,794.121c0,1.05-1.266.22-2.316.22s-2.045-.568-1.654-1.544a2.088,2.088,0,0,1,2.012-1.047C5627.4,791.75,5628.309,793.07,5628.309,794.121Z" fill="#fff"/>
          </g>
        </g>
        <path id="Path_6214" data-name="Path 6214" d="M5612.008,824.824c-9.067-.914-19.721,8.446-19.221,23.1,1.011,29.67,6.394,47.952,6.394,47.952s54.132-21.637,53.311-22.926C5632.795,842.065,5629.831,827.884,5612.008,824.824Z" fill="#7d82ff"/>
        <path id="Path_6215" data-name="Path 6215" d="M5652.469,873.138" fill="#ffb3b5"/>
        <g id="Group_13934" data-name="Group 13934">
          <path id="Path_6216" data-name="Path 6216" d="M5629.6,874.685l4.282,7.921a5.244,5.244,0,0,0,8.627.881l42.871-49.03s2.563-14.013,5.541-16.449c4.11-3.363,3.8,7.854,3.8,7.854s30.5-10.061,28.4-4.11c-11.584,32.884-45.59,84.079-65.769,106.5-10.549,11.722-24.663,11.958-32.137-2.242h0l-9.984-46.219Z" fill="#f7aeaf"/>
          <g id="Group_13933" data-name="Group 13933">
            <g id="Group_13923" data-name="Group 13923">
              <g id="Group_13922" data-name="Group 13922">
                <path id="Path_6217" data-name="Path 6217" d="M5736.008,816.2l-36.386,29.3L5680,839.512l35.091-26.976Z" fill="#1d234a"/>
                <path id="Path_6218" data-name="Path 6218" d="M5736.008,813.019l-36.386,29.295L5680,836.336l35.091-26.976Z" fill="#fffff7"/>
                <path id="Path_6219" data-name="Path 6219" d="M5718.775,810.059l-1.023.831a.188.188,0,0,0,.08.329l7.886,1.637a1.123,1.123,0,0,0,.947-.238l1.232-.946Z" fill="#1d234a"/>
              </g>
              <path id="Path_6220" data-name="Path 6220" d="M5684.9,834.093l15.84,4.816,3.4-3.073-15.445-4.816Z" fill="#7d82ff"/>
            </g>
            <g id="Group_13930" data-name="Group 13930">
              <g id="Group_13925" data-name="Group 13925">
                <g id="Group_13924" data-name="Group 13924" opacity="0.52">
                  <path id="Path_6221" data-name="Path 6221" d="M5681.921,817.349l15.886.085,3.9,4.225.094-17.514a1.265,1.265,0,0,0-1.258-1.271l-18.545-.1a1.264,1.264,0,0,0-1.271,1.258l-.064,12.045A1.264,1.264,0,0,0,5681.921,817.349Z" fill="#5165e3"/>
                </g>
              </g>
              <g id="Group_13929" data-name="Group 13929">
                <g id="Group_13928" data-name="Group 13928">
                  <g id="Group_13927" data-name="Group 13927">
                    <path id="Path_6222" data-name="Path 6222" d="M5689.8,813.1c0,.671.545.988,1.216.988s1.216-.317,1.216-.988" fill="#fff"/>
                    <g id="Group_13926" data-name="Group 13926">
                      <path id="Path_6223" data-name="Path 6223" d="M5687.6,812a8.974,8.974,0,0,1-.238.95h7.144a8.425,8.425,0,0,1-.208-.95Z" fill="#fff"/>
                      <path id="Path_6224" data-name="Path 6224" d="M5687.686,811.54h6.545a20.551,20.551,0,0,1-.178-2.165,3.183,3.183,0,0,0-2.357-3.017c-.009-.521-.31-.94-.682-.94s-.656.4-.679.9a3.049,3.049,0,0,0-2.512,3.056A11.15,11.15,0,0,1,5687.686,811.54Z" fill="#fff"/>
                    </g>
                  </g>
                </g>
                <path id="Path_6225" data-name="Path 6225" d="M5694.637,807.331a1.276,1.276,0,1,0-1.275,1.276A1.276,1.276,0,0,0,5694.637,807.331Z" fill="#ff94a6"/>
              </g>
            </g>
            <g id="Group_13932" data-name="Group 13932">
              <g id="Group_13931" data-name="Group 13931" opacity="0.52">
                <path id="Path_6226" data-name="Path 6226" d="M5719.295,820.307l-10.829.058-2.659,2.88-.064-11.938a.863.863,0,0,1,.858-.867l12.641-.067a.861.861,0,0,1,.866.857l.044,8.211A.861.861,0,0,1,5719.295,820.307Z" fill="#5165e3"/>
              </g>
              <path id="Path_6227" data-name="Path 6227" d="M5715,813.588h0c-.526-.524-1.517.01-1.877.483-.365-.469-1.361-.993-1.882-.463h0a1.381,1.381,0,0,0-.128,1.567,4.26,4.26,0,0,0,2.027,2.125h0a4.192,4.192,0,0,0,2-2.146A1.385,1.385,0,0,0,5715,813.588Z" fill="#fff"/>
            </g>
          </g>
        </g>
        <g id="Group_13939" data-name="Group 13939">
          <g id="Group_13937" data-name="Group 13937">
            <path id="Path_6228" data-name="Path 6228" d="M5612.008,824.824c-9.067-.914-19.721,8.446-19.221,23.1,1.011,29.67,6.394,47.952,6.394,47.952s54.132-21.637,53.311-22.926C5632.795,842.065,5629.831,827.884,5612.008,824.824Z" fill="#7d82ff"/>
            <g id="Group_13936" data-name="Group 13936" clip-path="url(#clip-path)">
              <g id="Group_13935" data-name="Group 13935">
                <path id="Path_6229" data-name="Path 6229" d="M5629.639,825.579q.082-.7.164-1.411a27.468,27.468,0,0,0-3.719,8.288,13.719,13.719,0,0,0,.719,8.926,7.847,7.847,0,0,0,2.9,3.392,10.374,10.374,0,0,0,4.084,1.219,34.547,34.547,0,0,0,11.589-.443" fill="#7d82ff"/>
                <path id="Path_6230" data-name="Path 6230" d="M5630.345,833a5.635,5.635,0,0,0,4.113,8.212" fill="#7d82ff"/>
                <path id="Path_6231" data-name="Path 6231" d="M5629.271,853.551c8.21,1.539,14.427,5.113,20.345,11.007" fill="#7d82ff"/>
                <path id="Path_6232" data-name="Path 6232" d="M5631.718,860.1a70.6,70.6,0,0,1,10.906,5.17,23.65,23.65,0,0,1,8.452,8.449" fill="#7d82ff"/>
                <path id="Path_6233" data-name="Path 6233" d="M5641.983,878.974q-.382-2.229-.765-4.457c-.159-.929-.229-2.083.556-2.6a1.673,1.673,0,0,1,1.786.109,4.905,4.905,0,0,1,1.264,1.4l3.347,4.814" fill="#7d82ff"/>
              </g>
            </g>
          </g>
          <path id="Path_6235" data-name="Path 6235" d="M5652.429,938.584c-.241-.683-12.055-49.609-14.329-59.842-2.383-10.723-14.336-35.793-18.391-45.483h0l-2.023-15.7-28.695-9.033L5578.471,829.8c-5.02.47-14.154,6.163-14.154,6.163-6,16.82.343,87.6-.1,101.914C5623.338,937.876,5652.429,938.584,5652.429,938.584Z" fill="#7d82ff"/>
          <path id="Path_6236" data-name="Path 6236" d="M5644.635,938.23s-47.926-107.188-65.309-107.188l-14.754,106.834Z" fill="#585dd6"/>
          <g id="Group_13938" data-name="Group 13938">
            <path id="Path_6237" data-name="Path 6237" d="M5686.513,819.244a7.47,7.47,0,0,1,3.016,9.175c-13.259,32.826-35.721,66.792-54.72,87.9-10.549,11.722-48.2,16.394-60.112-2.464-7.174-11.359-17.738-28.647-17.738-28.647l41.3-9.8,4.281,7.921a5.245,5.245,0,0,0,8.628.881l42.87-49.03,10.108-11.005s14.226-17.865,25.309-16.542c0,0,4.3-.166-6.782,9.263Z" fill="#ffb3b5"/>
            <path id="Path_6238" data-name="Path 6238" d="M5580.225,829.5c-8.67-2.891-21.058,4.224-23.66,19.1-5.267,30.113,2.71,56.458,2.71,56.458s50.487-20.359,49.956-21.836C5596.489,847.825,5597,836.459,5580.225,829.5Z" fill="#7d82ff"/>
          </g>
        </g>
      </g>
      <g id="Group_13942" data-name="Group 13942">
        <path id="Path_6239" data-name="Path 6239" d="M5710.223,831.63l2.967,2.967h11.174a4.118,4.118,0,0,1,4.118,4.119v.893a4.118,4.118,0,0,1-4.118,4.118h-10.023a4.118,4.118,0,0,1-4.118-4.118Z" fill="none" stroke="#5165e3" stroke-miterlimit="10" stroke-width="0.494" opacity="0.52"/>
        <g id="Group_13941" data-name="Group 13941">
          <path id="Path_6240" data-name="Path 6240" d="M5722.548,839.276a1.027,1.027,0,1,1,1.027,1.028A1.027,1.027,0,0,1,5722.548,839.276Z" fill="#fff"/>
          <path id="Path_6241" data-name="Path 6241" d="M5718.782,839.276a1.027,1.027,0,1,1,1.027,1.028A1.027,1.027,0,0,1,5718.782,839.276Z" fill="#fff"/>
          <path id="Path_6242" data-name="Path 6242" d="M5715.016,839.276a1.027,1.027,0,1,1,1.027,1.028A1.027,1.027,0,0,1,5715.016,839.276Z" fill="#fff"/>
        </g>
      </g>
      <g id="Group_13945" data-name="Group 13945">
        <g id="Group_13944" data-name="Group 13944">
          <path id="Path_6243" data-name="Path 6243" d="M5702.067,803.893l2.967-2.967h11.174a4.119,4.119,0,0,0,4.118-4.118v-.894a4.119,4.119,0,0,0-4.118-4.118h-10.023a4.118,4.118,0,0,0-4.118,4.118Z" fill="none" stroke="#fff88a" stroke-miterlimit="10" stroke-width="0.494"/>
          <g id="Group_13943" data-name="Group 13943">
            <path id="Path_6244" data-name="Path 6244" d="M5714.392,796.247a1.027,1.027,0,1,0,1.027-1.027A1.027,1.027,0,0,0,5714.392,796.247Z" fill="#fff"/>
            <path id="Path_6245" data-name="Path 6245" d="M5710.626,796.247a1.027,1.027,0,1,0,1.027-1.027A1.027,1.027,0,0,0,5710.626,796.247Z" fill="#fff"/>
            <circle id="Ellipse_94" data-name="Ellipse 94" cx="1.027" cy="1.027" r="1.027" transform="translate(5706.86 795.22)" fill="#fff"/>
          </g>
        </g>
        <circle id="Ellipse_95" data-name="Ellipse 95" cx="2.126" cy="2.126" r="2.126" transform="translate(5716.859 789.575)" fill="#ff94a6"/>
      </g>
    </g>
  </g>
</svg>
