<svg xmlns="http://www.w3.org/2000/svg" xmlns:xlink="http://www.w3.org/1999/xlink" width="317.031" height="261.804" viewBox="0 0 317.031 261.804">
  <defs>
    <clipPath id="clip-path">
      <path id="Path_6602" data-name="Path 6602" d="M5668.386,2478.624c-7.807,22.59-17.131,44.9-49.56,53.511l-140.165-1.489c-31.585-14.918-48.845-44.373-51.717-76.153a108.373,108.373,0,0,1,1.874-31.83q.864-4.175,2.06-8.3c7.241-24.966,22.567-48.5,45.366-61.778,14.649-8.53,33.426-5.715,48.984-1.336,14.027,3.948,27.73,9.477,42.212,11.142,11.536,1.322,23.272.149,34.845.6a84.929,84.929,0,0,1,12.339,1.3c17.483,3.284,32.981,14,43.617,28.338a77.949,77.949,0,0,1,9.147,15.9C5676.754,2430.526,5676.193,2456.034,5668.386,2478.624Z" fill="none"/>
    </clipPath>
  </defs>
  <g id="Group_15021" data-name="Group 15021" transform="translate(-5401.89 -2286.109)">
    <g id="Group_14989" data-name="Group 14989">
      <path id="Path_6595" data-name="Path 6595" d="M5706.89,2505.033l-.09,0,.262-4.533H5684l1.112,19.232a6.814,6.814,0,0,0,6.8,6.421h7.233a6.815,6.815,0,0,0,6.8-6.421l.256-4.438c.225.022.452.035.683.035,3.367,0,6.106-2.31,6.106-5.15S5710.257,2505.033,5706.89,2505.033Zm0,8.165a5.165,5.165,0,0,1-.56-.033l.347-5.991c.071,0,.141-.008.213-.008,2.191,0,3.973,1.353,3.973,3.016S5709.081,2513.2,5706.89,2513.2Z" fill="#ee6f57"/>
      <g id="Group_14988" data-name="Group 14988">
        <path id="Path_6596" data-name="Path 6596" d="M5697.866,2498.76a9.06,9.06,0,0,1-5.849-3.476,9.266,9.266,0,0,1-1.626-3.2c-.092-.291-.146-.589-.211-.886-.04-.3-.1-.6-.114-.9a9.734,9.734,0,0,1,.009-1.809,10.011,10.011,0,0,1,.983-3.459,9.281,9.281,0,0,1,.949-1.539,9.592,9.592,0,0,1,1.2-1.309c.406-.379.8-.705,1.132-1.032a5.788,5.788,0,0,0,.464-.487,3.263,3.263,0,0,0,.345-.489,2.347,2.347,0,0,0,.322-1.108,1.426,1.426,0,0,0-.321-1.017l.581-.847a2.218,2.218,0,0,1,.794.7,2.931,2.931,0,0,1,.419.958,3.8,3.8,0,0,1-.091,2,9.046,9.046,0,0,1-1.986,2.931,8.93,8.93,0,0,0-.843,1.118c-.129.187-.233.392-.349.587-.1.207-.209.405-.292.618a8.992,8.992,0,0,0-.7,2.634,8.35,8.35,0,0,0,1.171,5.245,9.889,9.889,0,0,0,4.284,3.77Z" fill="#e5ecff"/>
        <path id="Path_6597" data-name="Path 6597" d="M5698.557,2493.363a11.122,11.122,0,0,0,2.251-2.682,8.951,8.951,0,0,0,1.148-3.06,9.41,9.41,0,0,0-.051-3.259,12.14,12.14,0,0,0-1.159-3.3l.748-.7a6.905,6.905,0,0,1,2.629,3.345,8.073,8.073,0,0,1,.413,4.378,8.258,8.258,0,0,1-1.922,3.95,7.147,7.147,0,0,1-3.6,2.251Z" fill="#e5ecff"/>
      </g>
    </g>
    <g id="Group_14993" data-name="Group 14993">
      <path id="Path_6598" data-name="Path 6598" d="M5516.513,2530.734c-29.45-5.7-50.251-22.862-59.907-49.443-15.359-42.282,1.1-104.612,45.127-118.306,17.437-5.423,38.85,4.289,56.764,4.157,25.161-.186,47.787-15.627,72.782-13.658,32.541,2.563,56.327,32.541,62.428,62.957a89.856,89.856,0,0,1,.661,31.755,96.814,96.814,0,0,1-11.165,32.5c-4.853,8.526-16.072,19.814-25.616,22.086Z" fill="none" stroke="#fbc343" stroke-miterlimit="10" stroke-width="0.709"/>
      <path id="Path_6599" data-name="Path 6599" d="M5595.343,2526.013c29.105-7.186,51.344-28.89,59.012-53.723,12.2-39.5-9.037-95.08-54.236-104.547-9.181-1.923-18.857-1.437-28.172-.36-15.215,1.758-30.823,3.968-46.156,3.479-14.912-.476-29.373-4.86-44.4-4.521-49.668,1.118-79.414,48.55-68.014,91.984a84.333,84.333,0,0,0,13.664,28.808c5.514,7.425,17.623,16.931,27.367,18.35Z" fill="none" stroke="#fbc343" stroke-miterlimit="10" stroke-width="0.696"/>
      <g id="Group_14992" data-name="Group 14992">
        <g id="Group_14991" data-name="Group 14991" clip-path="url(#clip-path)">
          <g id="Group_14990" data-name="Group 14990">
            <path id="Path_6600" data-name="Path 6600" d="M5668.386,2478.624c-7.807,22.59-17.131,44.9-49.56,53.511l-140.165-1.489c-31.585-14.918-48.845-44.373-51.717-76.153a108.373,108.373,0,0,1,1.874-31.83q.864-4.175,2.06-8.3c7.241-24.966,22.567-48.5,45.366-61.778,14.649-8.53,33.426-5.715,48.984-1.336,14.027,3.948,27.73,9.477,42.212,11.142,11.536,1.322,23.272.149,34.845.6a84.929,84.929,0,0,1,12.339,1.3c17.483,3.284,32.981,14,43.617,28.338a77.949,77.949,0,0,1,9.147,15.9C5676.754,2430.526,5676.193,2456.034,5668.386,2478.624Z" fill="#ffeec7"/>
            <path id="Path_6601" data-name="Path 6601" d="M5401.756,2512.831c-.639-7.761,3.706-16.129,11.339-21.839,6.953-5.2,15.53-7.85,23.765-9.94,45.751-11.613,94.077-10.227,140.812-8.888,41.765,1.2,84.954,2.436,126.3-5.572,5.885-1.14,12.072-2.526,17.338-5.793,5.656-3.509,9.237-9.005,9.345-14.345.2-10.012-10.643-16.873-17.126-20.072-24.621-12.15-54.915-16.719-95.335-14.386a456.634,456.634,0,0,0-90.688,14.559c-6.687,1.776-13.481,3.74-20.05,5.639-23.52,6.8-47.838,13.829-72.642,13.829h-.373c-6.733-.019-15.377-1.383-18.324-7.771-2.079-4.508-.33-9.644,1.5-13.159,6.127-11.747,17.717-18.594,26.362-22.269,9.711-4.128,20.263-6.371,30.468-8.542q1.818-.386,3.632-.775a688.3,688.3,0,0,0,67.727-18.258c10.508-3.42,15.9-7.865,16.487-13.591.519-5.079-3.209-9.527-7.134-11.682-4.7-2.583-10.259-2.918-14.574-2.921h-.061a80.209,80.209,0,0,0-37.378,9.244c-4.247,2.247-8.345,4.92-12.308,7.5a120.307,120.307,0,0,1-16.52,9.563c-11.309,5.032-24.7,6.886-39.792,5.509-11.655-1.063-20.539-3.924-27.16-8.749-4-2.91-7.329-6.665-10.554-10.3-3.918-4.413-7.97-8.975-13.177-11.939l.345-.605c5.306,3.021,9.4,7.627,13.353,12.082,3.2,3.6,6.509,7.33,10.443,10.2,6.516,4.748,15.287,7.567,26.813,8.618,14.974,1.365,28.247-.469,39.446-5.452a119.962,119.962,0,0,0,16.423-9.509c3.976-2.594,8.087-5.275,12.363-7.537a80.9,80.9,0,0,1,37.7-9.325h.062c4.4,0,10.067.349,14.908,3.007,4.126,2.265,8.043,6.967,7.491,12.362-.617,6.03-6.166,10.669-16.964,14.182a688.6,688.6,0,0,1-67.8,18.277q-1.815.391-3.633.776c-10.173,2.163-20.692,4.4-30.341,8.5-8.54,3.63-19.986,10.385-26.017,21.95-1.761,3.376-3.449,8.294-1.488,12.546,2.793,6.055,11.163,7.347,17.694,7.366h.371c24.707,0,48.974-7.015,72.449-13.8,6.573-1.9,13.37-3.864,20.065-5.642a457.278,457.278,0,0,1,90.827-14.581c40.546-2.343,70.948,2.251,95.682,14.455,6.631,3.273,17.724,10.314,17.514,20.712-.114,5.572-3.821,11.29-9.675,14.922-5.365,3.328-11.622,4.732-17.572,5.884-41.421,8.022-84.649,6.784-126.452,5.585-46.686-1.338-94.963-2.722-140.621,8.866-8.165,2.073-16.664,4.7-23.519,9.824-7.443,5.567-11.682,13.7-11.063,21.224Z" fill="#fff"/>
          </g>
        </g>
      </g>
    </g>
    <path id="Path_6603" data-name="Path 6603" d="M5604.009,2513.1c9.463,2.426,22.466,4.6,18.321,12.693l-23.576-.024Z" fill="#e28b6d"/>
    <g id="Group_14994" data-name="Group 14994">
      <rect id="Rectangle_591" data-name="Rectangle 591" width="51.005" height="74.776" rx="14.1" transform="translate(5469.22 2457.36)" fill="#102048"/>
      <path id="Path_6604" data-name="Path 6604" d="M5480.577,2464.255a3.107,3.107,0,0,0-1.821,1.8,11.755,11.755,0,0,0-.838,2.595,34.929,34.929,0,0,0-.671,5.475,99.636,99.636,0,0,0,.114,11.086c.21,3.695.549,7.384,1,11.061q.324,2.759.747,5.5c.272,1.832.577,3.659.95,5.473l-.265.061c-.444-1.806-.824-3.626-1.164-5.454s-.614-3.666-.87-5.507q-.747-5.526-1.081-11.1a90.565,90.565,0,0,1-.013-11.162,34.538,34.538,0,0,1,.8-5.545,12.092,12.092,0,0,1,.966-2.656,4.994,4.994,0,0,1,.831-1.171,2.573,2.573,0,0,1,1.26-.73Z" fill="#fff" opacity="0.8"/>
    </g>
    <path id="Path_6605" data-name="Path 6605" d="M5489.3,2469.183a310.288,310.288,0,0,0,10.528,61.461h24.823Z" fill="#1f3c88"/>
    <path id="Path_6606" data-name="Path 6606" d="M5500.69,2454.241a11.447,11.447,0,0,1-3.393-17.261q.657-.789,1.464-1.594c6.96-6.933,2.623-13.869,1.651-29.819-.972-15.934,16.779-20.286,16.813-20.294.838-.2,2.458-2.594,3.142-3.188,8.013-6.949,19.506-6.435,28.288-1.147a28.784,28.784,0,0,1,10.645,10.836c3.587,7.051,4.236,16.34,10.277,21.83,8.61,7.826,18.162,14.47,17.776,27.093-.137,4.484-1.26,9.222-3.992,12.816-2.382,3.133-6.01,5.234-9.284,7.26a79.773,79.773,0,0,1-16.882,8.162c-5.753,1.894-11.57,3.6-17.4,5.22q-.826.231-1.655.457Z" fill="#6f3428"/>
    <path id="Path_6607" data-name="Path 6607" d="M5541.283,2447.35c20.849-7.159,32.173,16.177,47.744,61.71l14.982,4.042-1.741,16.215-5.467,1.14-44.634.187Z" fill="#708cd5"/>
    <path id="Path_6608" data-name="Path 6608" d="M5511.912,2443.957l46.625,11.669,19.589,58.7-65.44,1.994-4.329-43.4Z" fill="#708cd5"/>
    <path id="Path_6609" data-name="Path 6609" d="M5513.555,2469.183c11.456,11.532,8.922,28.431,18.708,30.108,6.479,1.11,24.89,3.741,33.674,7.4,1.776.74,6.68,4.388,5.92,7.623-.489,2.086-7.024.415-7.024.415l-48.925-4.91-10.361-23.973Z" fill="#1f3c88" opacity="0.3"/>
    <path id="Path_6610" data-name="Path 6610" d="M5553.8,2511.454c.333-.524,7.347-1.915,8.14-1.807a6.044,6.044,0,0,1,4.663,3.964l-10.38,5.474Z" fill="#102048"/>
    <path id="Path_6611" data-name="Path 6611" d="M5561.565,2469.131l1.205,2.744c.4.917.766,1.845,1.15,2.768.74,1.856,1.453,3.723,2.122,5.606,1.356,3.76,2.557,7.575,3.683,11.409q1.659,5.762,2.98,11.612c.424,1.953.834,3.909,1.2,5.875s.662,3.942.922,5.924l-.258.037q-.489-2.949-1.121-5.872c-.4-1.952-.847-3.894-1.308-5.833q-1.385-5.815-3.047-11.56c-1.089-3.834-2.3-7.632-3.579-11.406-.632-1.89-1.318-3.761-2.011-5.63-.354-.931-.695-1.868-1.06-2.795l-1.115-2.775Z" fill="#102048"/>
    <g id="Group_14995" data-name="Group 14995">
      <path id="Path_6612" data-name="Path 6612" d="M5598.834,2521.359s-1.962,2.32-8.155.061c-2.918.338-8.345.079-18.666-1.6,0,0,3.748,2.621,12.223,3.071,0,0-.362,2.5-4.829,2.384-5.376-.135-6-.459-10.9-.255-1,.041-3.182,0-5.543-.079-4.119-.135-8.8-.353-8.8-.353l-4.082-7.3,8.146-3.9a21.216,21.216,0,0,1,4.963-1.489c5.26-.747,8.582-1.341,12.353-.691C5579.737,2511.925,5592.535,2516.169,5598.834,2521.359Z" fill="#f9b384"/>
    </g>
    <path id="Path_6613" data-name="Path 6613" d="M5563.195,2524.811l-.227.125c-4.119-.135-8.8-.353-8.8-.353l-4.082-7.3,8.146-3.9a21.216,21.216,0,0,1,4.963-1.489C5560.2,2513.117,5557.749,2516.318,5563.195,2524.811Z" fill="#e28b6d"/>
    <path id="Path_6614" data-name="Path 6614" d="M5531.13,2447.27c-10.6-2.171-36.424-3.978-43.641,9.392-5.941,11.008,8.951,47.87,15.4,60.834,2.655,5.336,10.365,7.977,13.363,8l42.58-.245c-2.864-.664-6.536-16.036,3.1-15.6l-35.264-4.912a4.835,4.835,0,0,1-3.367-2.117,10.133,10.133,0,0,1-1.405-2.852L5511.9,2463.1Z" fill="#708cd5"/>
    <path id="Path_6615" data-name="Path 6615" d="M5625.346,2525.493l-41.544-.026v-3.919h41.785Z" fill="#fff"/>
    <g id="Group_14996" data-name="Group 14996">
      <path id="Path_6616" data-name="Path 6616" d="M5660.446,2525.493l-50.114-.015,18.279-53.451,50.114.016Z" fill="#102048"/>
      <path id="Path_6617" data-name="Path 6617" d="M5648.565,2501.613c-1.536,2.454-4.407,3.46-6.6,2.384a3.309,3.309,0,0,1-.381-.209c-2.231-1.391-2.718-4.629-1.095-7.222s4.746-3.572,6.977-2.176a4.237,4.237,0,0,1,1.531,1.694A5.724,5.724,0,0,1,5648.565,2501.613Z" fill="#fff"/>
      <path id="Path_6618" data-name="Path 6618" d="M5648.565,2501.613c-1.536,2.454-5.31,4.236-7.956,1.319,5.738.521,7.671-3.238,7.562-7.988A5.407,5.407,0,0,1,5648.565,2501.613Z" fill="#708cd5"/>
    </g>
    <g id="Group_14997" data-name="Group 14997">
      <path id="Path_6619" data-name="Path 6619" d="M5575.57,2511.071a41.616,41.616,0,0,1,6.235,1.543c2.043.641,4.05,1.389,6.025,2.218a55.7,55.7,0,0,1,5.795,2.776,29.967,29.967,0,0,1,5.295,3.648l-.173.21a31.239,31.239,0,0,0-2.638-1.769c-.9-.556-1.83-1.068-2.772-1.554-1.881-.979-3.8-1.878-5.774-2.675-1.943-.857-3.941-1.584-5.943-2.3q-1.5-.53-3.027-1c-1.014-.317-2.037-.607-3.069-.837Z" fill="#6f3428"/>
      <path id="Path_6620" data-name="Path 6620" d="M5574.743,2520.962l2.242.641c.747.2,1.5.373,2.253.526s1.515.275,2.278.383,1.531.176,2.3.253l.256.026.021.221a2.112,2.112,0,0,1-.084.828,1.523,1.523,0,0,1-.449.707,1.71,1.71,0,0,1-.729.354,3.6,3.6,0,0,1-.383.055l-.376-.01v-.272l.337-.05c.1-.033.216-.049.315-.09a1.267,1.267,0,0,0,.506-.329,1.077,1.077,0,0,0,.264-.509,1.566,1.566,0,0,0,.015-.586l.276.246a22.638,22.638,0,0,1-4.69-.573,20.24,20.24,0,0,1-2.27-.669,23.082,23.082,0,0,1-2.177-.9Z" fill="#6f3428"/>
      <path id="Path_6621" data-name="Path 6621" d="M5572.845,2515.561c1.8.23,3.615.407,5.428.592s3.626.375,5.438.662,3.6.616,5.39.941,3.585.658,5.372,1.019l.424.086-.181.392a5.158,5.158,0,0,1-.462.964,2.64,2.64,0,0,1-.385.448,4.79,4.79,0,0,1-.469.332,6.268,6.268,0,0,1-2.048.649,21.1,21.1,0,0,1-4.129.171c-.684-.025-1.367-.054-2.047-.115s-1.362-.1-2.039-.187c-1.357-.141-2.706-.333-4.053-.529l.034-.27c1.355.111,2.705.262,4.06.342q1.014.079,2.029.124c.677.043,1.353.055,2.028.063a23.951,23.951,0,0,0,4.01-.235,5.673,5.673,0,0,0,1.818-.583c.132-.075.24-.174.361-.258a2.043,2.043,0,0,0,.273-.326,4.948,4.948,0,0,0,.4-.879l.242.478c-3.578-.674-7.151-1.394-10.734-2.016-1.781-.324-3.589-.543-5.4-.784s-3.614-.481-5.412-.813Z" fill="#6f3428"/>
    </g>
    <line id="Line_30" data-name="Line 30" x2="317.031" transform="translate(5401.89 2525.271)" fill="none" stroke="#102048" stroke-miterlimit="10" stroke-width="0.928"/>
    <path id="Path_6622" data-name="Path 6622" d="M5525.915,2461.162a15.186,15.186,0,0,0,5.046,2.234,13.853,13.853,0,0,0,5.462.209,11.342,11.342,0,0,0,5.01-2.077,11.517,11.517,0,0,0,3.473-4.221l.249.107q-.288.649-.6,1.3c-.232.416-.5.811-.76,1.219-.283.387-.62.734-.929,1.1-.332.347-.712.649-1.068.975a11.471,11.471,0,0,1-5.267,2.274,13.811,13.811,0,0,1-10.783-2.906Z" fill="#102048"/>
    <path id="Path_6623" data-name="Path 6623" d="M5513.681,2469.147l2.325,7.9,2.288,7.912,2.264,7.92,1.126,3.961.563,1.981a14.8,14.8,0,0,0,.613,1.912,5.694,5.694,0,0,0,2.709,2.692,15.853,15.853,0,0,0,3.815,1.272c1.33.285,2.675.479,4.04.654l4.081.553,8.159,1.129,8.153,1.173-.034.258-8.181-.97-8.175-1.014-4.085-.519c-1.359-.168-2.734-.359-4.091-.644a16.435,16.435,0,0,1-3.982-1.312,6.256,6.256,0,0,1-3.011-3,3.339,3.339,0,0,1-.2-.506c-.056-.171-.121-.346-.162-.509l-.277-.991-.554-1.983-1.109-3.967-2.2-7.936-2.18-7.943-2.143-7.954Z" fill="#102048"/>
    <g id="Group_15000" data-name="Group 15000">
      <path id="Path_6624" data-name="Path 6624" d="M5540.163,2430.692l2.088,17.975c.621,5.35-5.018,9.834-10.733,8.351-3.268-.849-6.674-3.11-10.2-6.51a4.139,4.139,0,0,1-1.263-2.566l-2.226-21.664Z" fill="#f9b384"/>
      <path id="Path_6625" data-name="Path 6625" d="M5540.447,2433.137l1.137,9.787c-4.619.725-11.13-1.872-17.736-10.64Z" fill="#3c1c16"/>
      <path id="Path_6626" data-name="Path 6626" d="M5551.838,2417.751a48.338,48.338,0,0,1-1.7,9.724c-1.545,5.143-4.24,9.29-8.859,10.058-13.6,2.26-23.449-11.256-23.449-11.256l-1.581-18.393,8.206-14.2,18.374-.533,8.961,10.6A87.977,87.977,0,0,1,5551.838,2417.751Z" fill="#f9b384"/>
      <path id="Path_6627" data-name="Path 6627" d="M5515.812,2414.872c7.3-.544,8.98-6.712,9.478-14.708,0,0,19.77-4.9,26.788,9.157l5.322.577-16.117-21.4-25.049,2.988-4.9,16.261Z" fill="#6f3428"/>
      <path id="Path_6628" data-name="Path 6628" d="M5519.674,2412.476a3.983,3.983,0,0,0-3.411-1.274c-4.848.586-5.691,7.007-4.582,9.739,1.659,4.09,6.151,5.335,6.151,5.335l3.86-4.083C5522,2417.942,5521.518,2414.508,5519.674,2412.476Z" fill="#f9b384"/>
      <path id="Path_6629" data-name="Path 6629" d="M5519.754,2431.208c2.664,7.576,10.861,28.972-2.527,28.434-6.453-.259-12.123-12.776-21.322-10.413a24.353,24.353,0,0,1,3.44-1.329Z" fill="#3c1c16" opacity="0.15"/>
      <path id="Path_6630" data-name="Path 6630" d="M5517.832,2426.276c2.583,4.905,9.808,29.174-2.5,27.772-5.932-.675-7.388-7.82-15.988-6.148Z" fill="#6f3428"/>
      <g id="Group_14998" data-name="Group 14998">
        <path id="Path_6631" data-name="Path 6631" d="M5518.255,2416.922a2.692,2.692,0,0,0-.442-1.534,2.729,2.729,0,0,0-1.14-1,1.842,1.842,0,0,0-1.4-.076,3.588,3.588,0,0,0-1.3.962l-.3-.177a2.822,2.822,0,0,1,1.278-1.5,1.7,1.7,0,0,1,.5-.189,1.776,1.776,0,0,1,.542-.065l.274.009.265.056a1.87,1.87,0,0,1,.506.174,3,3,0,0,1,1.437,1.445,2.511,2.511,0,0,1,.115,1.967Z" fill="#3c1c16"/>
        <path id="Path_6632" data-name="Path 6632" d="M5544.268,2414.181c.044,1.25.773,2.239,1.627,2.21s1.512-1.068,1.468-2.318-.772-2.239-1.626-2.209S5544.225,2412.931,5544.268,2414.181Z" fill="#3c1c16"/>
        <path id="Path_6633" data-name="Path 6633" d="M5530.788,2414.654c.044,1.25.772,2.239,1.627,2.209s1.511-1.068,1.468-2.318-.772-2.239-1.627-2.209S5530.744,2413.4,5530.788,2414.654Z" fill="#3c1c16"/>
        <path id="Path_6634" data-name="Path 6634" d="M5544.1,2426.907a6.65,6.65,0,0,1-2.222,1.893,4.358,4.358,0,0,1-3.052.217,7.566,7.566,0,0,1-2.588-1.413,12.018,12.018,0,0,1-2.01-2.028l.281-.29c.77.532,1.492,1.1,2.257,1.58a9.237,9.237,0,0,0,2.345,1.164,3.93,3.93,0,0,0,2.424-.042,9.794,9.794,0,0,0,2.283-1.37Z" fill="#3c1c16"/>
        <path id="Path_6635" data-name="Path 6635" d="M5548.832,2410.32a11.32,11.32,0,0,0-1.733-1.064,3.3,3.3,0,0,0-1.693-.309,5.865,5.865,0,0,0-1.753.517c-.606.263-1.2.617-1.88.919l-.186-.2a5.486,5.486,0,0,1,1.477-1.7,4.3,4.3,0,0,1,2.238-.884,3.4,3.4,0,0,1,2.369.723,4.278,4.278,0,0,1,1.373,1.83Z" fill="#3c1c16"/>
        <path id="Path_6636" data-name="Path 6636" d="M5535.326,2410.794a7.116,7.116,0,0,0-1.947-1.024,4.91,4.91,0,0,0-2-.2,7.459,7.459,0,0,0-2.009.54c-.673.278-1.332.639-2.066.989l-.185-.2a5.75,5.75,0,0,1,1.7-1.81,5.121,5.121,0,0,1,2.437-.887,4.332,4.332,0,0,1,2.584.557,3.981,3.981,0,0,1,1.7,1.866Z" fill="#3c1c16"/>
        <path id="Path_6637" data-name="Path 6637" d="M5522.271,2423.3a4.943,4.943,0,1,0,4.767-5.114A4.943,4.943,0,0,0,5522.271,2423.3Z" fill="#fc8879" opacity="0.5"/>
        <path id="Path_6638" data-name="Path 6638" d="M5551.838,2417.751a48.338,48.338,0,0,1-1.7,9.724,4.947,4.947,0,0,1,1.021-9.742A5.633,5.633,0,0,1,5551.838,2417.751Z" fill="#fc8879" opacity="0.5"/>
        <path id="Path_6639" data-name="Path 6639" d="M5538.689,2413.205a.211.211,0,0,1,.413-.039c1.106,3.606,4.7,6.243,4.122,7.3-.405.745-1.924,1.589-2.989,2.11a.953.953,0,0,1-1.354-.675A31.1,31.1,0,0,1,5538.689,2413.205Z" fill="#fc8879" opacity="0.5"/>
        <path id="Path_6640" data-name="Path 6640" d="M5539.458,2412.839a9.231,9.231,0,0,0,1.314,2.916c.588.9,1.277,1.741,1.973,2.623.176.221.345.451.512.7a3.861,3.861,0,0,1,.46.847,1.23,1.23,0,0,1,.065.67,1.344,1.344,0,0,1-.315.576,3.769,3.769,0,0,1-.72.615,11.751,11.751,0,0,1-3.129,1.405l-.154-.373c.474-.282.96-.548,1.419-.848a13.04,13.04,0,0,0,1.323-.912,3.747,3.747,0,0,0,.518-.5.743.743,0,0,0,.088-.145.628.628,0,0,0-.043-.147,6.645,6.645,0,0,0-.837-1.253,20.07,20.07,0,0,1-1.919-2.8,7.279,7.279,0,0,1-.956-3.317Z" fill="#3c1c16"/>
      </g>
      <g id="Group_14999" data-name="Group 14999">
        <path id="Path_6641" data-name="Path 6641" d="M5513.513,2427.623a4.631,4.631,0,0,0-.369,2.206,7.407,7.407,0,0,0,.53,2.209c.6,1.409,1.394,2.788,2.094,4.209a16.591,16.591,0,0,1,1.626,4.543,10.21,10.21,0,0,1,.118,2.464,10.493,10.493,0,0,1-.2,1.237,5.878,5.878,0,0,1-.458,1.191,4.782,4.782,0,0,1-1.715,1.906,4,4,0,0,1-2.531.593,9.326,9.326,0,0,1-2.368-.728c-.736-.307-1.456-.628-2.172-.949a20.243,20.243,0,0,0-4.38-1.523,5.118,5.118,0,0,0-2.223,0,3.035,3.035,0,0,0-.976.476,3.371,3.371,0,0,0-.746.818l-.3-.175a3.734,3.734,0,0,1,.774-.978,3.476,3.476,0,0,1,1.1-.616,5.616,5.616,0,0,1,2.464-.14,20.911,20.911,0,0,1,4.585,1.421l2.179.905a8.761,8.761,0,0,0,2.142.646,3.13,3.13,0,0,0,1.982-.489,4.144,4.144,0,0,0,1.4-1.575,5.016,5.016,0,0,0,.4-1.007,9.588,9.588,0,0,0,.19-1.094,9.372,9.372,0,0,0-.086-2.247,17.561,17.561,0,0,0-1.482-4.358c-.645-1.428-1.4-2.8-1.981-4.323a7.97,7.97,0,0,1-.451-2.4,4.823,4.823,0,0,1,.543-2.383Z" fill="#3c1c16"/>
        <path id="Path_6642" data-name="Path 6642" d="M5513.762,2386.3a26.051,26.051,0,0,1,4.132-1.4,41.056,41.056,0,0,1,4.268-.879,36.475,36.475,0,0,1,4.344-.41c.729-.019,1.459-.016,2.189.02a15.51,15.51,0,0,1,2.178.281l-.049.343c-.714-.022-1.423-.046-2.137,0-.712.016-1.425.064-2.135.133q-2.133.2-4.258.51c-1.417.208-2.826.465-4.232.736-.7.135-1.4.292-2.1.459-.7.151-1.387.348-2.08.535Z" fill="#3c1c16"/>
        <path id="Path_6643" data-name="Path 6643" d="M5525.212,2400.01a7.919,7.919,0,0,1,1.848-.658c.631-.146,1.267-.274,1.907-.358a28.376,28.376,0,0,1,3.861-.244,29.407,29.407,0,0,1,7.668,1.037,20.583,20.583,0,0,1,6.983,3.386,15.011,15.011,0,0,1,4.756,6.074l-.314.149a16.317,16.317,0,0,0-4.906-5.6,20.032,20.032,0,0,0-3.229-1.883,24.772,24.772,0,0,0-3.528-1.278,31.137,31.137,0,0,0-7.444-1.134,29.411,29.411,0,0,0-3.78.091,13.026,13.026,0,0,0-3.665.728Z" fill="#3c1c16"/>
      </g>
    </g>
    <g id="Group_15004" data-name="Group 15004">
      <g id="Group_15001" data-name="Group 15001">
        <path id="Path_6644" data-name="Path 6644" d="M5437.846,2469.229l4.769,1.545a1.049,1.049,0,0,1,.126,1.945l-5.209,2.469.009.071,7.286,1.452a.505.505,0,1,1-.2.991l-7.286-1.452a1.048,1.048,0,0,1-.245-1.975l5.209-2.469,0-.07-4.769-1.546a.505.505,0,1,1,.312-.961Z" fill="#3c1c16"/>
      </g>
      <g id="Group_15002" data-name="Group 15002">
        <path id="Path_6645" data-name="Path 6645" d="M5425.531,2462.658l4.236,1.373a.931.931,0,0,1,.111,1.727l-4.625,2.193.008.063,6.47,1.289a.449.449,0,1,1-.175.88l-6.471-1.289a.931.931,0,0,1-.217-1.754l4.626-2.193,0-.062-4.236-1.373a.449.449,0,0,1,.277-.854Z" fill="#3c1c16"/>
      </g>
      <g id="Group_15003" data-name="Group 15003">
        <path id="Path_6646" data-name="Path 6646" d="M5451.1,2479.295l3.358,1.088a.738.738,0,0,1,.089,1.369l-3.668,1.739.007.05,5.13,1.022a.356.356,0,1,1-.139.7l-5.13-1.022a.738.738,0,0,1-.172-1.391l3.667-1.739,0-.049-3.358-1.088a.356.356,0,1,1,.219-.677Z" fill="#3c1c16"/>
      </g>
    </g>
    <g id="Group_15006" data-name="Group 15006">
      <rect id="Rectangle_592" data-name="Rectangle 592" width="23.771" height="22.287" rx="4.433" transform="translate(5641.673 2430.66)" fill="#fff" stroke="#1f3c88" stroke-miterlimit="10" stroke-width="0.696"/>
      <path id="Path_6647" data-name="Path 6647" d="M5653.558,2457.35l-4.32-4.4h8.641Z" fill="#1f3c88"/>
      <g id="Group_15005" data-name="Group 15005">
        <path id="Path_6648" data-name="Path 6648" d="M5653.179,2448.118a.789.789,0,0,1-.6-.278l-4.321-5.081a.79.79,0,0,1,1.2-1.023l3.582,4.212,5.578-10.053a.789.789,0,1,1,1.381.765l-6.132,11.051a.792.792,0,0,1-.612.4C5653.231,2448.116,5653.205,2448.118,5653.179,2448.118Z" fill="#1f3c88"/>
      </g>
    </g>
    <g id="Group_15012" data-name="Group 15012">
      <g id="Group_15007" data-name="Group 15007">
        <path id="Path_6649" data-name="Path 6649" d="M5433.1,2501.684c-6.619,1.568-13.96,3.741-17.1,10.413-2.966,6.3.121,12.426,6.078,15.407,4.032,2.017,19.394,5.416,13.015,12.871-4.122,4.817-11.278,3.327-15.985.483-2.452-1.482-4.687,2.356-2.241,3.834,5.352,3.234,11.512,4.419,17.333,1.746,6.318-2.9,8.8-10.34,3.985-15.782-2.472-2.79-5.963-4.1-9.394-5.282-3.245-1.117-7.494-2.364-9.07-5.786-1.483-3.22.463-6.9,2.933-9.019,3.2-2.742,7.642-3.66,11.626-4.6,2.779-.659,1.6-4.941-1.181-4.282Z" fill="#ee6f57"/>
      </g>
      <g id="Group_15008" data-name="Group 15008">
        <path id="Path_6650" data-name="Path 6650" d="M5493.939,2509.8c7.525.439,8.065-9.361,8.065-9.361s-5.148-2.613-9.971.627Z" fill="#ee6f57"/>
        <path id="Path_6651" data-name="Path 6651" d="M5494.364,2506.836c3-.048,4.471-3.815,4.471-3.815a5.373,5.373,0,0,0-4.991.033Z" fill="#3c1c16"/>
      </g>
      <g id="Group_15009" data-name="Group 15009">
        <path id="Path_6652" data-name="Path 6652" d="M5472.688,2500.734c-5.218-5.44,1.887-12.211,1.887-12.211s5.328,2.22,5.994,7.992Z" fill="#ee6f57"/>
        <path id="Path_6653" data-name="Path 6653" d="M5474.543,2498.458c-1.821-2.2,0-5.606,0-5.606a5.123,5.123,0,0,1,3.066,3.642Z" fill="#3c1c16"/>
      </g>
      <path id="Path_6654" data-name="Path 6654" d="M5483.457,2524.8a1.873,1.873,0,0,1-1.452,1.094c-5.089.784-6.332-.621-6.332-.621s-4.049,2.254-13.568-.427a2.187,2.187,0,0,1-1.261.974c-1.457.478-7.112-.014-10.8-.4a79.672,79.672,0,0,0-8.748.288c-5.942,0-12.691-1.587-15.3-7.547-3.307-7.543.172-16.583,5.78-21.983,5.984-5.77,13.967-6.29,21.226-2.509,17.609,9.175,18.94,6.183,23.458,2.379l3.047,23.124a6.26,6.26,0,0,1,2.505,1.489,7.787,7.787,0,0,1,1,1.271A3.01,3.01,0,0,1,5483.457,2524.8Z" fill="#ee6f57"/>
      <path id="Path_6655" data-name="Path 6655" d="M5471.341,2500.734c-7.06,4.149-7.292,17.292,6.338,18.575l1.561-5.96Z" fill="#3c1c16" opacity="0.3"/>
      <path id="Path_6656" data-name="Path 6656" d="M5495.791,2510.5c-1.433,5.038-3.8,7.923-6.225,9.528a11.23,11.23,0,0,1-6.22,1.9,14.569,14.569,0,0,1-4.4-.687c-5.4-1.7-9.811-6.429-9.811-12.645,0-7.848,5.7-13.865,12.877-13.865C5490.229,2494.738,5498.342,2501.52,5495.791,2510.5Z" fill="#ee6f57"/>
      <path id="Path_6657" data-name="Path 6657" d="M5489.566,2520.033a11.23,11.23,0,0,1-6.22,1.9c-.112,0-.218,0-.33-.005a7.787,7.787,0,0,0-1-1.271,6.26,6.26,0,0,0-2.505-1.489,6.008,6.008,0,0,1,3.479.139s4.059-2.018,6.569.715Z" fill="#3c1c16" opacity="0.3"/>
      <path id="Path_6658" data-name="Path 6658" d="M5481.9,2522.28a2.355,2.355,0,0,0,.408,3.22,1.222,1.222,0,0,0,.717.295h7.077c.338,0,.519-.362.61-.833a3.992,3.992,0,0,0-1.423-3.782C5487.01,2519.261,5483.968,2519.307,5481.9,2522.28Z" fill="#ee6f57"/>
      <g id="Group_15010" data-name="Group 15010">
        <path id="Path_6659" data-name="Path 6659" d="M5469.135,2518.476a32.167,32.167,0,0,1,4.292.125,28.309,28.309,0,0,1,4.252.708,15.344,15.344,0,0,1,2.067.672,9.845,9.845,0,0,1,1.946,1.018,5.06,5.06,0,0,1,1.532,1.625,3.385,3.385,0,0,1,.361,2.187l-.259-.028a3.2,3.2,0,0,0-.5-1.923,4.562,4.562,0,0,0-1.456-1.378,13.465,13.465,0,0,0-3.853-1.534,34.421,34.421,0,0,0-4.151-.788c-1.4-.189-2.815-.327-4.228-.423Z" fill="#3c1c16"/>
      </g>
      <g id="Group_15011" data-name="Group 15011">
        <path id="Path_6660" data-name="Path 6660" d="M5445.515,2504.5a8.955,8.955,0,0,1,4,1.622,5.823,5.823,0,0,1,1.464,1.656,6.849,6.849,0,0,1,.789,2.069,9.8,9.8,0,0,1,.168,2.193,15.067,15.067,0,0,1-.272,2.166,21.826,21.826,0,0,1-1.312,4.127c-.279.665-.594,1.314-.938,1.951l-.131.238-.07.121,0,.008c.031.1-.3-.878-.154-.461l.015.006.031.012.061.025.49.192c.328.126.66.241.993.352a25.79,25.79,0,0,0,4.1.972,41.066,41.066,0,0,1,4.233.7,11.079,11.079,0,0,1,2.058.7,3.429,3.429,0,0,1,.937.613,1.133,1.133,0,0,1,.321.513.827.827,0,0,1-.079.619l-.23-.124a.632.632,0,0,0-.236-.774,3.145,3.145,0,0,0-.867-.509,10.979,10.979,0,0,0-2.009-.585,40.652,40.652,0,0,0-4.21-.581,24.279,24.279,0,0,1-4.215-.944c-.343-.112-.685-.226-1.023-.353l-.506-.193-.063-.025-.032-.012-.016-.006c.14.415-.2-.568-.162-.47l0-.006.062-.112.125-.23c.328-.619.625-1.258.907-1.9a21.217,21.217,0,0,0,1.306-3.992,14.29,14.29,0,0,0,.277-2.067,10.068,10.068,0,0,0-.113-2.06,5.741,5.741,0,0,0-1.985-3.481,8.894,8.894,0,0,0-3.77-1.717Z" fill="#3c1c16"/>
      </g>
      <path id="Path_6661" data-name="Path 6661" d="M5485.815,2506.414a3.905,3.905,0,0,0,2.064,2.008,3.441,3.441,0,0,0,1.427.121c.249-.023.5-.091.755-.128.25-.073.5-.147.769-.206l.127.258c-.232.153-.477.292-.725.43a6.286,6.286,0,0,1-.812.282,3.32,3.32,0,0,1-1.778-.042,2.911,2.911,0,0,1-1.451-1.056,3.426,3.426,0,0,1-.654-1.593Z" fill="#3c1c16"/>
      <path id="Path_6662" data-name="Path 6662" d="M5477.741,2502.928a3.9,3.9,0,0,0,1.9,2.162,3.463,3.463,0,0,0,1.413.232c.25,0,.5-.053.763-.07.255-.053.512-.108.782-.146l.107.268c-.243.135-.5.254-.756.372a6.251,6.251,0,0,1-.832.218,3.317,3.317,0,0,1-1.769-.179,2.914,2.914,0,0,1-1.365-1.166,3.434,3.434,0,0,1-.529-1.639Z" fill="#3c1c16"/>
    </g>
    <g id="Group_15014" data-name="Group 15014">
      <path id="Path_6663" data-name="Path 6663" d="M5649.184,2394.434h7.839l-6.26-40.523h-7.839Z" fill="#8cbfbe"/>
      <path id="Path_6664" data-name="Path 6664" d="M5657.03,2394.434h7.838l-6.26-40.523h-7.839Z" fill="#c6eae9"/>
      <g id="Group_15013" data-name="Group 15013">
        <rect id="Rectangle_593" data-name="Rectangle 593" width="28.929" height="18.609" transform="translate(5667.815 2375.818)" fill="#8cbfbe"/>
        <rect id="Rectangle_594" data-name="Rectangle 594" width="12.233" height="3.259" transform="translate(5676.163 2381.864)" fill="#fff"/>
      </g>
      <rect id="Rectangle_595" data-name="Rectangle 595" width="13.613" height="52.765" transform="translate(5629.312 2341.662)" fill="#c6eae9"/>
      <rect id="Rectangle_596" data-name="Rectangle 596" width="81.469" height="5.86" transform="translate(5621.981 2394.427)" fill="#8cbfbe"/>
    </g>
    <g id="Group_15016" data-name="Group 15016">
      <circle id="Ellipse_103" data-name="Ellipse 103" cx="26.189" cy="26.189" r="26.189" transform="translate(5529.924 2337.634) rotate(-76.67)" fill="#fff" stroke="#708cd5" stroke-miterlimit="10" stroke-width="0.928"/>
      <g id="Group_15015" data-name="Group 15015">
        <path id="Path_6665" data-name="Path 6665" d="M5571.8,2323.626l-11.192-5.321,12.227-10.77.614.7-11.172,9.84,9.921,4.717Z" fill="#102048"/>
      </g>
    </g>
    <g id="Group_15020" data-name="Group 15020">
      <g id="Group_15018" data-name="Group 15018">
        <rect id="Rectangle_597" data-name="Rectangle 597" width="52.251" height="34.39" rx="5.726" transform="translate(5431.691 2332.496)" fill="#c6eae9"/>
        <g id="Group_15017" data-name="Group 15017">
          <rect id="Rectangle_598" data-name="Rectangle 598" width="39.029" height="3.251" transform="translate(5438.302 2341.127)" fill="#8cbfbe"/>
          <rect id="Rectangle_599" data-name="Rectangle 599" width="39.029" height="3.251" transform="translate(5438.302 2348.065)" fill="#fff" opacity="0.8"/>
          <rect id="Rectangle_600" data-name="Rectangle 600" width="39.029" height="3.251" transform="translate(5438.302 2355.004)" fill="#fff" opacity="0.8"/>
        </g>
      </g>
      <path id="Path_6666" data-name="Path 6666" d="M5444.9,2401.687l-7.418-5.8h14.836Z" fill="#fbc343"/>
      <rect id="Rectangle_601" data-name="Rectangle 601" width="52.251" height="34.39" rx="5.726" transform="translate(5407.79 2361.5)" fill="#fbc343"/>
      <g id="Group_15019" data-name="Group 15019" opacity="0.8">
        <rect id="Rectangle_602" data-name="Rectangle 602" width="5.058" height="6.252" transform="translate(5418.843 2381.125)" fill="#fff"/>
        <rect id="Rectangle_603" data-name="Rectangle 603" width="5.058" height="13.212" transform="translate(5426.964 2374.165)" fill="#fff"/>
        <rect id="Rectangle_604" data-name="Rectangle 604" width="5.058" height="10.212" transform="translate(5435.447 2377.165)" fill="#fff"/>
        <rect id="Rectangle_605" data-name="Rectangle 605" width="5.058" height="17.363" transform="translate(5443.931 2370.013)" fill="#fff"/>
      </g>
    </g>
  </g>
</svg>
