<svg xmlns="http://www.w3.org/2000/svg" xmlns:xlink="http://www.w3.org/1999/xlink" width="329.789" height="1588.518" viewBox="0 0 329.789 1588.518">
  <defs>
    <clipPath id="clip-path">
      <rect id="Rectangle_625" data-name="Rectangle 625" width="329.789" height="1588.518" transform="translate(3079.895 853)" fill="none"/>
    </clipPath>
  </defs>
  <g id="Group_15206" data-name="Group 15206" transform="translate(-3079.895 -853)">
    <g id="Group_15205" data-name="Group 15205" clip-path="url(#clip-path)">
      <g id="Group_15204" data-name="Group 15204">
        <g id="Group_15145" data-name="Group 15145">
          <path id="Path_6873" data-name="Path 6873" d="M3399.1,1683.437c3.238-15.785,1.022-32.15,4.585-61.924s17.742-41.6,25.589-62.685,18.493-70.319,18.493-70.319h-8.6s-28.044,91.577-36.114,112.316-7.8,39.527-9.22,58.4-8.92,50.278-8.92,50.278-10.355-106.154-14.617-143.438-2.336-109.778-2.336-109.778l-9.849-4.2v54.965s4.074,52.466,7.311,82.551,11.023,127.708,9.069,199.386,17.072,130.9,17.386,133.234,2.955,73.089,1.543,108.214-2.245,173.892-.754,180.1l31.252,7.457s-18.151-122.414-14.789-210.917-4.06-83.647-15.682-125.967-7.987-157.085-7.987-157.085S3395.858,1699.223,3399.1,1683.437Z" fill="#1a2e35"/>
        </g>
        <g id="Group_15156" data-name="Group 15156">
          <g id="Group_15152" data-name="Group 15152">
            <g id="Group_15146" data-name="Group 15146">
              <path id="Path_6874" data-name="Path 6874" d="M3435.08,1499.948s44.749-13.1,73.127-49.114,46.931-65.488,76.4-79.676c-56.756-25.1-91.681,25.1-120.06,40.383s-56.755,26.194-52.389,55.664S3435.08,1499.948,3435.08,1499.948Z" fill="#ff854f"/>
            </g>
            <g id="Group_15147" data-name="Group 15147">
              <path id="Path_6875" data-name="Path 6875" d="M3617.667,1052.685a280.55,280.55,0,0,1-10.117,31.958,362,362,0,0,1-17.551,39.1,241.068,241.068,0,0,1-23.215,36.672c-8.841,11.329-18.3,20.4-27.929,25.573a45.106,45.106,0,0,1-6.648,2.913c-48,16.372-72.035,30.55-72.035,30.55-15.881-31.3-18.565-57.628-15.423-79.174a117.628,117.628,0,0,1,7.631-27.4,167.254,167.254,0,0,1,12.311-23.772c2.39-3.93,4.616-7.434,6.417-10.445,1.932-3.209,3.9-6.45,5.992-9.725,10.151-15.913,22.594-32.645,40.5-48.558,3.537-3.177,7.3-6.32,11.33-9.4a72.72,72.72,0,0,1,15.553-8.939c28.323-12.214,64.144-10.707,64.144-10.707s6.548,7.661,11.984,33.856c.1.557.2,1.114.263,1.736C3621.531,1032.647,3620.353,1041.717,3617.667,1052.685Z" fill="#ff854f"/>
            </g>
            <g id="Group_15148" data-name="Group 15148">
              <path id="Path_6876" data-name="Path 6876" d="M3497.291,1310.036s78.585-53.48,177.906-43.657c-53.48-52.39-97.138-50.206-134.247-31.652S3480.921,1267.47,3497.291,1310.036Z" fill="#ff854f"/>
            </g>
            <g id="Group_15149" data-name="Group 15149">
              <path id="Path_6877" data-name="Path 6877" d="M3406.7,1224.9s-38.2-49.115-90.589-62.212-112.42-10.914-112.42-10.914,29.469-42.567,93.865-39.293,84.041,19.647,94.955,41.476S3415.434,1199.8,3406.7,1224.9Z" fill="#ff854f"/>
            </g>
            <g id="Group_15150" data-name="Group 15150">
              <path id="Path_6878" data-name="Path 6878" d="M3399.073,1384.244c-.164,6.713-.425,13.1-.851,19.156-2.325,32.383-9.758,54.681-37.36,58.348,0,0-39.292-9.823-54.584-48.035-15.258-38.179-6.548-44.727-29.468-69.842s-34.9-87.326-34.9-87.326c.065,0,.131-.032.228-.032,3.307-.852,41.911-10.053,80.516,7.694.59.262,1.211.558,1.8.884C3364.135,1284.476,3400.154,1342.3,3399.073,1384.244Z" fill="#ff854f"/>
            </g>
            <g id="Group_15151" data-name="Group 15151">
              <path id="Path_6879" data-name="Path 6879" d="M3295.375,1498.846s-6.549,8.743-46.921,12.017c-40.405,3.274-50.228,36.017-96.069,43.646-45.841,7.662-52.389,6.549-72.035-5.435,8.9-27.569,31.073-35.854,51.275-51.7a94.225,94.225,0,0,0,17.715-17.682q1.031-1.275,1.964-2.651c8.349-11.951,22.1-19.974,37.556-24.721h.034a128.371,128.371,0,0,1,35.984-5.338c15.881-.2,30.746,2.391,41.028,7.138C3294.294,1467.216,3294.294,1483.587,3295.375,1498.846Z" fill="#ff854f"/>
            </g>
          </g>
          <g id="Group_15155" data-name="Group 15155">
            <g id="Group_15153" data-name="Group 15153">
              <path id="Path_6880" data-name="Path 6880" d="M3509.322,2267.9c-4.512,54.775-16.612,105.854-37.279,152.78a34.577,34.577,0,0,1-31.655,20.734h-62.525a34.573,34.573,0,0,1-31.654-20.734c-20.669-46.926-32.768-98-37.281-152.78a635.334,635.334,0,0,1-1.962-63.571h204.318A635.043,635.043,0,0,1,3509.322,2267.9Z" fill="#e1e1e1"/>
            </g>
            <g id="Group_15154" data-name="Group 15154">
              <path id="Path_6881" data-name="Path 6881" d="M3511.747,2267.9c-4.621,56.1-17.014,108.417-38.181,156.479a35.412,35.412,0,0,1-32.421,21.235h-64.039a35.411,35.411,0,0,1-32.421-21.235c-21.169-48.062-33.561-100.378-38.183-156.479Z" fill="#6f4975"/>
            </g>
          </g>
        </g>
        <g id="Group_15157" data-name="Group 15157">
          <path id="Path_6882" data-name="Path 6882" d="M3528.3,1957.656c-22.381-23.356-54.414-38.032-86.73-36.6l-.864.832c-6.579,32.949,8.534,68.008,33.934,90s59.656,31.941,93.25,32.578C3563.768,2012.379,3550.676,1981.01,3528.3,1957.656Z" fill="#ff854f"/>
        </g>
        <g id="Group_15158" data-name="Group 15158">
          <path id="Path_6883" data-name="Path 6883" d="M3333.525,1991.823c-13.129-2.57-26.7.538-39.378,4.822a215.077,215.077,0,0,0-80.45,49.068c27.023,9.351,55.328,17.975,83.747,14.81s57.082-21.084,64.2-48.779C3359.056,1998.619,3346.653,1994.392,3333.525,1991.823Z" fill="#ff854f"/>
        </g>
        <g id="Group_15159" data-name="Group 15159">
          <path id="Path_6884" data-name="Path 6884" d="M3142.778,1821.548c6.058,10.433,16.879,17.2,27.918,22.061s22.749,8.277,33.254,14.206c18.87,10.649,32.488,28.6,50.1,41.22a107.192,107.192,0,0,0,87.628,16.518c4.968-30.193-5.6-62.172-26.332-84.679s-50.922-35.543-81.486-37-61.256,8.293-86.468,25.633" fill="#ff854f"/>
        </g>
        <g id="Group_15160" data-name="Group 15160">
          <path id="Path_6885" data-name="Path 6885" d="M3421.512,1856.224c-10.99-26.982-.079-62.968,21.135-82.939,13.851-13.041,32.147-20.1,50.021-26.618q22.4-8.171,44.978-15.858c3.557-1.21,7.547-2.4,10.949-.8,5.085,2.383,5.756,9.25,5.45,14.858-1.242,22.761-6.77,45.562-18.334,65.207s-29.467,35.952-51.016,43.385-44.415,15.7-63.183,2.766" fill="#ff854f"/>
        </g>
        <g id="Group_15161" data-name="Group 15161">
          <path id="Path_6886" data-name="Path 6886" d="M3335.96,1755.263c-1.411-13.477-10.688-25.261-22.28-32.28s-25.268-9.823-38.773-10.932a175.684,175.684,0,0,0-93.064,18.185,313.17,313.17,0,0,0,83.877,40.415c12.375,3.821,25.316,6.9,38.186,5.446s25.768-8.176,31.652-19.715" fill="#ff854f"/>
        </g>
        <g id="Group_15162" data-name="Group 15162">
          <path id="Path_6887" data-name="Path 6887" d="M3335.893,1612.533c-22.981-13.517-49.544-19.812-76.024-22.929,3.547,27.948,9.482,57.572,29.278,77.617a71.107,71.107,0,0,0,44.888,20.733c16.8,1.241,37.089-3.095,50.556-13.207v-1.4C3378.051,1647.5,3358.875,1626.05,3335.893,1612.533Z" fill="#ff854f"/>
        </g>
        <g id="Group_15163" data-name="Group 15163">
          <path id="Path_6888" data-name="Path 6888" d="M3478.494,1555.374c-14.4,9.523-15.592,31.438-7.212,46.537s23.544,24.974,38.116,34.238c19.026,12.094,38.151,24.243,58.848,33.183,26.539,11.464,55.755,17.724,79.29,34.514,2.569-31.583-1.141-64.128-14.383-92.915s-36.593-53.526-66.119-65.029-65.141-8.457-90.318,10.783" fill="#ff854f"/>
        </g>
        <g id="Group_15165" data-name="Group 15165">
          <g id="Group_15164" data-name="Group 15164">
            <path id="Path_6889" data-name="Path 6889" d="M3479.7,1561.591c.217.472-7.059,3.563-17.637,10.477a147.739,147.739,0,0,0-17.529,13.521,146.96,146.96,0,0,0-32.8,42.789,147.753,147.753,0,0,0-8.5,20.442c-3.928,12.013-5.023,19.839-5.534,19.753-.183-.026-.006-1.987.473-5.531a53.6,53.6,0,0,1,1.15-6.408c.577-2.473,1.1-5.333,2.1-8.375a131.429,131.429,0,0,1,8.1-20.98,138.2,138.2,0,0,1,33.367-43.533,131.517,131.517,0,0,1,18.153-13.275c2.675-1.763,5.3-3.01,7.54-4.209a53.183,53.183,0,0,1,5.889-2.776C3477.776,1562.1,3479.625,1561.421,3479.7,1561.591Z" fill="#1a2e35"/>
          </g>
        </g>
        <g id="Group_15167" data-name="Group 15167">
          <g id="Group_15166" data-name="Group 15166">
            <path id="Path_6890" data-name="Path 6890" d="M3615.685,1648.98c-.162.106-1.714-1.92-4.462-5.6-2.785-3.657-6.819-8.942-12.132-15.193a266.459,266.459,0,0,0-46.877-43.382c-10.136-7.308-20.237-13.705-30.11-17.977-9.855-4.308-19.461-6.323-27.568-6.308a52.017,52.017,0,0,0-18.834,3.195c-4.252,1.634-6.424,2.995-6.547,2.792-.049-.077.451-.478,1.459-1.173a33.708,33.708,0,0,1,4.689-2.58,48.747,48.747,0,0,1,19.221-4.125c8.369-.263,18.389,1.636,28.545,5.932,10.193,4.265,20.48,10.7,30.71,18.076a241.311,241.311,0,0,1,46.77,44.346c5.165,6.453,8.991,11.942,11.526,15.8C3614.571,1646.662,3615.831,1648.883,3615.685,1648.98Z" fill="#1a2e35"/>
          </g>
        </g>
        <g id="Group_15169" data-name="Group 15169">
          <g id="Group_15168" data-name="Group 15168">
            <path id="Path_6891" data-name="Path 6891" d="M3536.383,1384.935c.244.406-7.365,4.948-18.8,13.465a264.411,264.411,0,0,0-72.876,82.981c-6.969,12.433-10.491,20.563-10.925,20.375-.17-.072.575-2.159,2.071-5.882,1.456-3.74,3.893-9.019,7.192-15.4a235.723,235.723,0,0,1,73.431-83.611c5.9-4.1,10.816-7.193,14.337-9.12C3534.317,1385.783,3536.29,1384.776,3536.383,1384.935Z" fill="#1a2e35"/>
          </g>
        </g>
        <g id="Group_15171" data-name="Group 15171">
          <g id="Group_15170" data-name="Group 15170">
            <path id="Path_6892" data-name="Path 6892" d="M3294.149,1283.142c.052-.076.685.261,1.843.976,1.142.736,2.884,1.751,4.965,3.285a144.5,144.5,0,0,1,16.846,14.009,160.846,160.846,0,0,1,48.683,131.515,144.37,144.37,0,0,1-3.662,21.6c-.582,2.519-1.242,4.423-1.629,5.726a6.215,6.215,0,0,1-.763,1.939c-.207-.055.407-2.842,1.375-7.888a182.518,182.518,0,0,0,2.8-21.532,166.393,166.393,0,0,0-48.129-130.014,182.945,182.945,0,0,0-16.144-14.523C3296.311,1285.035,3294.029,1283.319,3294.149,1283.142Z" fill="#1a2e35"/>
          </g>
        </g>
        <g id="Group_15173" data-name="Group 15173">
          <g id="Group_15172" data-name="Group 15172">
            <path id="Path_6893" data-name="Path 6893" d="M3170.981,1482.949c-.111-.106,1.138-1.687,3.754-4.217a67.043,67.043,0,0,1,12.344-9.224,74.868,74.868,0,0,1,93.712,13.761,67.185,67.185,0,0,1,9.171,12.383c1.777,3.175,2.519,5.049,2.383,5.117-.474.3-3.915-7.091-12.918-16.19a75.811,75.811,0,0,0-91.419-13.425C3176.769,1477.282,3171.349,1483.371,3170.981,1482.949Z" fill="#1a2e35"/>
          </g>
        </g>
        <g id="Group_15175" data-name="Group 15175">
          <g id="Group_15174" data-name="Group 15174">
            <path id="Path_6894" data-name="Path 6894" d="M3382.531,1671.044c-.333.658-18.931-8.1-41.534-19.566s-40.663-21.294-40.33-21.953,18.928,8.1,41.539,19.569S3382.865,1670.386,3382.531,1671.044Z" fill="#1a2e35"/>
          </g>
        </g>
        <g id="Group_15177" data-name="Group 15177">
          <g id="Group_15176" data-name="Group 15176">
            <path id="Path_6895" data-name="Path 6895" d="M3225.012,1724.243c0-.186,1.637-.345,4.614-.477,2.976-.159,7.29-.127,12.612.145a190.27,190.27,0,0,1,79.6,22.532c4.675,2.557,8.367,4.79,10.817,6.486,2.466,1.673,3.778,2.667,3.68,2.823-.23.372-5.875-2.985-15.362-7.629a227,227,0,0,0-78.882-22.327C3231.581,1724.78,3225.014,1724.68,3225.012,1724.243Z" fill="#1a2e35"/>
          </g>
        </g>
        <g id="Group_15179" data-name="Group 15179">
          <g id="Group_15178" data-name="Group 15178">
            <path id="Path_6896" data-name="Path 6896" d="M3536.632,1741.638c.09.162-1.824,1.463-5.351,3.673-3.547,2.177-8.6,5.451-14.742,9.635a328.4,328.4,0,0,0-82.6,80.628c-4.329,6.035-7.725,11.011-9.987,14.5-2.293,3.472-3.64,5.354-3.8,5.261s.885-2.152,2.914-5.8c1.995-3.672,5.164-8.828,9.322-15.039a287.416,287.416,0,0,1,83.106-81.127c6.311-4.007,11.542-7.05,15.261-8.957C3534.459,1742.47,3536.543,1741.477,3536.632,1741.638Z" fill="#1a2e35"/>
          </g>
        </g>
        <g id="Group_15181" data-name="Group 15181">
          <g id="Group_15180" data-name="Group 15180">
            <path id="Path_6897" data-name="Path 6897" d="M3180.113,1819.722c0-.181,2.8-.3,7.855-.308s12.37.072,21.411.578a207.59,207.59,0,0,1,31.589,4.065,116.882,116.882,0,0,1,36.44,14.1,129.792,129.792,0,0,1,29.606,25.508,233.067,233.067,0,0,1,19.114,25.464c4.969,7.566,8.724,13.845,11.265,18.213s3.844,6.843,3.689,6.939-1.77-2.189-4.572-6.388-6.8-10.31-11.946-17.7a259.893,259.893,0,0,0-19.392-24.889,132.1,132.1,0,0,0-29.156-24.861,118.294,118.294,0,0,0-35.584-13.984,227.87,227.87,0,0,0-31.189-4.583c-8.973-.746-16.267-1.114-21.307-1.424S3180.107,1819.91,3180.113,1819.722Z" fill="#1a2e35"/>
          </g>
        </g>
        <g id="Group_15183" data-name="Group 15183">
          <g id="Group_15182" data-name="Group 15182">
            <path id="Path_6898" data-name="Path 6898" d="M3361.9,2010.06c-.013.428-5.977.417-15.543,1.1a218.51,218.51,0,0,0-72.334,17.726c-8.8,3.815-14.082,6.581-14.291,6.207-.091-.16,1.134-1.022,3.435-2.447,2.289-1.446,5.725-3.332,10.065-5.475a178.079,178.079,0,0,1,73.032-17.9c4.84-.107,8.759-.023,11.457.2C3360.419,2009.678,3361.9,2009.876,3361.9,2010.06Z" fill="#1a2e35"/>
          </g>
        </g>
        <g id="Group_15185" data-name="Group 15185">
          <g id="Group_15184" data-name="Group 15184">
            <path id="Path_6899" data-name="Path 6899" d="M3545.4,2030.521c-.52.523-24.882-22.9-54.4-52.313s-53.045-53.689-52.524-54.212,24.876,22.9,54.41,52.318S3545.917,2030,3545.4,2030.521Z" fill="#1a2e35"/>
          </g>
        </g>
        <g id="Group_15187" data-name="Group 15187">
          <g id="Group_15186" data-name="Group 15186">
            <path id="Path_6900" data-name="Path 6900" d="M3445.5,1924.222c-.071.823-10.048-.481-21.552,3.087-11.559,3.4-19.145,10-19.659,9.358-.553-.377,6.64-8.289,18.887-11.918C3435.378,1920.994,3445.75,1923.6,3445.5,1924.222Z" fill="#1a2e35"/>
          </g>
        </g>
        <g id="Group_15189" data-name="Group 15189">
          <g id="Group_15188" data-name="Group 15188">
            <path id="Path_6901" data-name="Path 6901" d="M3407.436,1984.935c-.413.2-2.911-4.772-7.993-12.092a161.894,161.894,0,0,0-23.027-26.013c-10.012-9.241-19.814-16.817-26.866-22.36-7.072-5.522-11.409-9.012-11.185-9.32.209-.29,4.931,2.654,12.31,7.8a264.671,264.671,0,0,1,27.56,21.919c10.143,9.363,18.072,19.191,22.786,26.932a73.69,73.69,0,0,1,5.084,9.425C3407.123,1983.545,3407.6,1984.856,3407.436,1984.935Z" fill="#1a2e35"/>
          </g>
        </g>
        <g id="Group_15191" data-name="Group 15191">
          <g id="Group_15190" data-name="Group 15190">
            <path id="Path_6902" data-name="Path 6902" d="M3397.257,2008.661c.233.639-8.1,3.651-18.851,3.182-10.757-.391-18.823-4.06-18.538-4.68.249-.757,8.365,1.646,18.645,2.01C3388.785,2009.632,3397.069,2007.886,3397.257,2008.661Z" fill="#1a2e35"/>
          </g>
        </g>
        <g id="Group_15193" data-name="Group 15193">
          <g id="Group_15192" data-name="Group 15192">
            <path id="Path_6903" data-name="Path 6903" d="M3435.848,1834.785c.358.254-3.081,5.329-7.866,13.94a195.865,195.865,0,0,0-23.52,72.655c-1.168,9.781-1.356,15.908-1.795,15.9-.184,0-.321-1.532-.411-4.313a110.992,110.992,0,0,1,.325-11.774,164.642,164.642,0,0,1,23.77-73.425,110.447,110.447,0,0,1,6.636-9.73C3434.689,1835.839,3435.7,1834.678,3435.848,1834.785Z" fill="#1a2e35"/>
          </g>
        </g>
        <g id="Group_15195" data-name="Group 15195">
          <g id="Group_15194" data-name="Group 15194">
            <path id="Path_6904" data-name="Path 6904" d="M3381.227,1805.511c-.422.122-1.561-3.845-4.744-9.554a77.786,77.786,0,0,0-16.062-19.652,187.963,187.963,0,0,0-20.535-15.448c-5.492-3.7-8.864-6.071-8.666-6.4.186-.305,3.89,1.486,9.668,4.793a127.049,127.049,0,0,1,21.322,15.066c7.669,6.857,13.165,14.628,15.955,20.775C3381.022,1801.242,3381.517,1805.458,3381.227,1805.511Z" fill="#1a2e35"/>
          </g>
        </g>
        <g id="Group_15197" data-name="Group 15197">
          <g id="Group_15196" data-name="Group 15196">
            <path id="Path_6905" data-name="Path 6905" d="M3372.9,1580.846c-.4.2-3.666-5.974-9.759-15.416a232.215,232.215,0,0,0-60.083-63.178c-9.124-6.561-15.128-10.136-14.906-10.52.092-.161,1.679.578,4.481,2.057,2.818,1.45,6.761,3.8,11.5,6.908a197.779,197.779,0,0,1,60.615,63.738c2.869,4.888,5.015,8.944,6.323,11.832C3372.405,1579.141,3373.064,1580.763,3372.9,1580.846Z" fill="#1a2e35"/>
          </g>
        </g>
        <g id="Group_15199" data-name="Group 15199">
          <g id="Group_15198" data-name="Group 15198">
            <path id="Path_6906" data-name="Path 6906" d="M3565.934,1277.622a16.32,16.32,0,0,1-3.065,1.5l-8.97,3.849c-7.783,3.342-19.125,8.024-32.639,14.788-13.437,6.82-29.225,15.762-44.033,29.1-14.807,13.314-28.491,30.672-40.4,50.373-11.971,19.7-21.411,39.615-30,57.7-8.549,18.041-16.267,34.33-22.8,48.114l-15.577,32.343c-1.793,3.593-3.238,6.491-4.358,8.736a1.712,1.712,0,1,1-.488-.229l3.9-8.947,14.807-32.7c6.384-13.855,13.928-30.227,22.283-48.361,8.478-18.155,17.882-38.18,29.95-58.042,12-19.858,25.927-37.413,41.047-50.824,15.141-13.447,31.214-22.31,44.836-28.953,13.7-6.588,25.175-11.008,33.086-14.057l9.162-3.385A16.364,16.364,0,0,1,3565.934,1277.622Z" fill="#1a2e35"/>
          </g>
        </g>
        <g id="Group_15201" data-name="Group 15201">
          <g id="Group_15200" data-name="Group 15200">
            <path id="Path_6907" data-name="Path 6907" d="M3385.261,1177.88c.164-.086,1.574,2.331,3.986,6.779,2.444,4.431,5.711,10.988,9.5,19.207a446.19,446.19,0,0,1,37.614,135.823c.979,9,1.549,16.3,1.734,21.356.219,5.054.253,7.85.069,7.861s-.569-2.762-1.107-7.78c-.5-5.021-1.358-12.273-2.573-21.2a515.967,515.967,0,0,0-37.464-135.292c-3.553-8.283-6.551-14.942-8.7-19.507C3386.2,1180.542,3385.1,1177.965,3385.261,1177.88Z" fill="#1a2e35"/>
          </g>
        </g>
        <g id="Group_15203" data-name="Group 15203">
          <g id="Group_15202" data-name="Group 15202">
            <path id="Path_6908" data-name="Path 6908" d="M3557.174,1040.774a14.446,14.446,0,0,1-1.487,2.84l-4.7,7.856c-4.129,6.794-10.259,16.522-17.431,28.784-14.539,24.394-33.994,58.521-52.482,97.692-9.127,19.641-17.155,38.653-23.677,56.242-6.426,17.623-11.389,33.777-15.02,47.487s-5.776,25-7.234,32.8c-.633,3.685-1.145,6.671-1.548,9.012a14.526,14.526,0,0,1-.7,3.127,14.324,14.324,0,0,1,.166-3.2c.224-2.082.48-5.168,1.055-9.107,1.146-7.874,3.024-19.264,6.429-33.1s8.21-30.121,14.538-47.867c6.421-17.71,14.413-36.827,23.57-56.533a991.88,991.88,0,0,1,53.287-97.537c7.389-12.155,13.769-21.739,18.17-28.365,2.1-3.1,3.8-5.617,5.126-7.589A14.443,14.443,0,0,1,3557.174,1040.774Z" fill="#1a2e35"/>
          </g>
        </g>
      </g>
    </g>
  </g>
</svg>
