<svg xmlns="http://www.w3.org/2000/svg" width="374.12" height="217.431" viewBox="0 0 374.12 217.431">
  <g id="Group_13901" data-name="Group 13901" transform="translate(-4877.969 -754.076)">
    <g id="Group_13751" data-name="Group 13751" opacity="0.6">
      <path id="Path_6088" data-name="Path 6088" d="M5055.788,859.459s32.374-114.634,63.15-104.681-38.714,72.008-47.081,105.677Z" fill="#b2c9c6"/>
    </g>
    <g id="Group_13761" data-name="Group 13761">
      <g id="Group_13753" data-name="Group 13753">
        <g id="Group_13752" data-name="Group 13752">
          <path id="Path_6089" data-name="Path 6089" d="M5232.747,906.931c-13.962,8.085-4.147,30-22.609,31.3s-17.4-.265-23.233,9.816c0,0-.889,8.213-7.307,11.6-25.322,13.359-74.81-14.508-53.857-45.4,1.513-2.231,4.26-3.788,7.354-5.348,16.788-8.454,24.91-2.115,32.122-27.433s35.74-1.542,47.255-6.413,20.816-11.792,34.1-2.208S5246.714,898.856,5232.747,906.931Z" fill="#b2c9c6"/>
        </g>
      </g>
      <g id="Group_13760" data-name="Group 13760" opacity="0.5">
        <g id="Group_13755" data-name="Group 13755">
          <g id="Group_13754" data-name="Group 13754">
            <path id="Path_6090" data-name="Path 6090" d="M5143.6,940.361l-.833-.657c.289-.367,29.833-37.091,107.085-63.986l.349,1C5173.236,903.515,5143.885,939.995,5143.6,940.361Z" fill="#74a1bd"/>
          </g>
        </g>
        <g id="Group_13757" data-name="Group 13757">
          <g id="Group_13756" data-name="Group 13756">
            <path id="Path_6091" data-name="Path 6091" d="M5207.551,896.669c-1.551-.629-2.425-1.081-2.465-1.1l.5-.938c.183.1,18.611,9.593,38.961,2.354l.356,1C5228.5,903.816,5213.331,899.013,5207.551,896.669Z" fill="#74a1bd"/>
          </g>
        </g>
        <g id="Group_13759" data-name="Group 13759">
          <g id="Group_13758" data-name="Group 13758">
            <path id="Path_6092" data-name="Path 6092" d="M5225.17,916.774a25.036,25.036,0,0,1-10.811-11.888,18.538,18.538,0,0,1-1.557-6.544h1.061c0,.106.17,10.7,11.842,17.517Z" fill="#74a1bd"/>
          </g>
        </g>
      </g>
    </g>
    <g id="Group_13778" data-name="Group 13778">
      <g id="Group_13762" data-name="Group 13762">
        <path id="Path_6093" data-name="Path 6093" d="M4985.745,804.852c-3.1,1.31-4.434.716-4.948-.5s-.009-2.588,3.088-3.9c5.641-2.388,9.3-1.344,9.3-1.344S4991.468,802.43,4985.745,804.852Z" fill="#b2c9c6"/>
      </g>
      <g id="Group_13777" data-name="Group 13777">
        <g id="Group_13764" data-name="Group 13764">
          <g id="Group_13763" data-name="Group 13763">
            <path id="Path_6094" data-name="Path 6094" d="M4974.06,882.487l-.621-.137c.02-.1,2.094-9.752.691-24.48-1.3-13.589-5.9-34.4-20.492-56.366l.53-.352c14.67,22.089,19.3,43.018,20.6,56.686C4976.175,872.658,4974.081,882.391,4974.06,882.487Z" fill="#b2c9c6"/>
          </g>
        </g>
        <g id="Group_13766" data-name="Group 13766">
          <g id="Group_13765" data-name="Group 13765">
            <path id="Path_6095" data-name="Path 6095" d="M4967.814,828.261l-.486-.41c14.89-17.676,10.518-42.083,10.472-42.328l.625-.117C4978.471,785.653,4982.9,810.35,4967.814,828.261Z" fill="#b2c9c6"/>
          </g>
        </g>
        <g id="Group_13768" data-name="Group 13768">
          <g id="Group_13767" data-name="Group 13767">
            <path id="Path_6096" data-name="Path 6096" d="M4959.656,816.776a22.534,22.534,0,0,1-10.883-4.73l.421-.477a21.362,21.362,0,0,0,13.465,4.723l.02.637A18.773,18.773,0,0,1,4959.656,816.776Z" fill="#b2c9c6"/>
          </g>
        </g>
        <g id="Group_13770" data-name="Group 13770">
          <g id="Group_13769" data-name="Group 13769">
            <path id="Path_6097" data-name="Path 6097" d="M4953.678,797.931c2.944,3.449,3.006,5.169,2,6.024s-2.691.523-5.634-2.926c-5.362-6.284-6.138-10.87-6.138-10.87S4948.238,791.555,4953.678,797.931Z" fill="#b2c9c6"/>
          </g>
        </g>
        <g id="Group_13772" data-name="Group 13772">
          <g id="Group_13771" data-name="Group 13771">
            <path id="Path_6098" data-name="Path 6098" d="M4950.733,810.228c3.847,2.4,4.425,4.022,3.727,5.14s-2.408,1.31-6.255-1.091c-7.006-4.375-9.129-8.514-9.129-8.514S4943.624,805.79,4950.733,810.228Z" fill="#b2c9c6"/>
          </g>
        </g>
        <g id="Group_13774" data-name="Group 13774">
          <g id="Group_13773" data-name="Group 13773">
            <path id="Path_6099" data-name="Path 6099" d="M4967.428,807.572c.335,3.345-.629,4.447-1.94,4.578s-2.474-.758-2.809-4.1c-.609-6.1,1.471-9.278,1.471-9.278S4966.81,801.388,4967.428,807.572Z" fill="#b2c9c6"/>
          </g>
        </g>
        <g id="Group_13776" data-name="Group 13776">
          <g id="Group_13775" data-name="Group 13775">
            <path id="Path_6100" data-name="Path 6100" d="M4980.091,783.024c.474,4.51-.448,5.963-1.758,6.1s-2.515-1.092-2.989-5.6c-.863-8.215,1.093-12.435,1.093-12.435S4979.215,774.689,4980.091,783.024Z" fill="#b2c9c6"/>
          </g>
        </g>
      </g>
    </g>
    <g id="Group_13779" data-name="Group 13779">
      <path id="Path_6101" data-name="Path 6101" d="M4995.6,884.777s-51.892-110.149-81.251-94.945,51.126,66.105,65.216,98.648Z" fill="#b2c9c6"/>
    </g>
    <g id="Group_13793" data-name="Group 13793">
      <g id="Group_13781" data-name="Group 13781">
        <g id="Group_13780" data-name="Group 13780">
          <path id="Path_6102" data-name="Path 6102" d="M5013.218,941.994c-4.2,5.606-10.4,10.051-17.52,13.147l-3.152.085c-14.375.4-28.5.845-41.237,1.193h0a35.841,35.841,0,0,1-4.893-2.585v0a31.418,31.418,0,0,1-3.282-2.383,13.69,13.69,0,0,1-2.35-2.517c-3.97-5.476-3.255-12.624-3.255-12.624-4.272-13.033-3.421-10.986-24.39-16.953-15.031-4.288-10.728-17.263-12.3-28.947v0c-.03-.216-.06-.431-.095-.647h0a19.184,19.184,0,0,0-6.057-11.96,62.94,62.94,0,0,1-10.787-12.641h0q-.365-.575-.715-1.152c-5.7-9.443-7.706-19.59-.948-25.793l0,0c.16-.146.323-.289.493-.429a17.978,17.978,0,0,1,4.305-2.629c17.637-7.82,26.673,2.416,38.761,10.825,6.681,4.648,21.479.47,33.744,1.03h.008c.175.006.349.015.522.025,8.463.484,15.629,3.346,17.938,13.123a29.334,29.334,0,0,1,.688,4.683v.006c.019.277.039.549.06.819a61.773,61.773,0,0,0,2.706,15.2,23.669,23.669,0,0,0,3.393,6.619,22.851,22.851,0,0,0,6.261,5.583c2.277,1.456,4.836,2.773,7.661,4.365,1.332.752,2.724,1.565,4.172,2.484a67.988,67.988,0,0,1,6.1,4.341c1.108.886,2.166,1.761,3.128,2.652a15.538,15.538,0,0,1,4.049,5.3c.237.58.456,1.154.662,1.724C5020.869,925.035,5018.808,934.54,5013.218,941.994Z" fill="#cfd3a3"/>
        </g>
      </g>
      <g id="Group_13792" data-name="Group 13792">
        <g id="Group_13783" data-name="Group 13783">
          <g id="Group_13782" data-name="Group 13782">
            <path id="Path_6103" data-name="Path 6103" d="M4989.3,937.97l1.12-.554c-.243-.494-25.373-49.988-107.866-99.741l-.646,1.07C4964.094,888.312,4989.059,937.479,4989.3,937.97Z" fill="#c4c695"/>
          </g>
        </g>
        <g id="Group_13785" data-name="Group 13785">
          <g id="Group_13784" data-name="Group 13784">
            <path id="Path_6104" data-name="Path 6104" d="M4955.74,875.943c16.7-3.621,23.147-10.391,23.413-10.677l-.914-.852c-.063.068-6.489,6.779-22.765,10.307Z" fill="#c4c695"/>
          </g>
        </g>
        <g id="Group_13787" data-name="Group 13787">
          <g id="Group_13786" data-name="Group 13786">
            <path id="Path_6105" data-name="Path 6105" d="M4947.138,886.556c6.22-3.69,10.425-11.727,12.162-23.242a83.459,83.459,0,0,0,.763-16.348l-1.246.09c.022.3,1.985,29.942-12.317,38.426Z" fill="#c4c695"/>
          </g>
        </g>
        <g id="Group_13789" data-name="Group 13789">
          <g id="Group_13788" data-name="Group 13788">
            <path id="Path_6106" data-name="Path 6106" d="M4926.212,872.09c1.94-.348,3.058-.657,3.109-.671l-.343-1.2c-.235.067-23.777,6.536-45.47-6.749l-.653,1.066C4900.336,875.238,4918.982,873.387,4926.212,872.09Z" fill="#c4c695"/>
          </g>
        </g>
        <g id="Group_13791" data-name="Group 13791">
          <g id="Group_13790" data-name="Group 13790">
            <path id="Path_6107" data-name="Path 6107" d="M4901.026,890.98a29.486,29.486,0,0,0,15.345-11.074,21.8,21.8,0,0,0,3.384-7.164l-1.223-.259c-.026.122-2.794,12.294-17.9,17.311Z" fill="#c4c695"/>
          </g>
        </g>
      </g>
    </g>
    <g id="Group_13794" data-name="Group 13794">
      <path id="Path_6108" data-name="Path 6108" d="M5055.387,966.522c-3.068-.057-6.253-.093-9.534-.112h0c-17.458-.1-37.66.321-57.561.856l-3.153.085c-1.756-3.872-7.548-16.923-12.863-32.092h0q-.66-1.879-1.306-3.8h0c-.845-2.509-1.666-5.059-2.446-7.619-.712-2.334-1.388-4.676-2.016-7.005q-.651-2.41-1.224-4.794c-.558-2.322-1.057-4.613-1.479-6.849-.289-1.531-.543-3.039-.756-4.511-.342-2.359-.579-4.631-.694-6.789a35.725,35.725,0,0,1,.806-10.787h0q.231-.883.528-1.692c.1-.263.2-.522.307-.773a18.979,18.979,0,0,1,6.6-8.358c13.247-9.23,38.248-.133,58.517,5.3,5.128,1.373,9.078,6.158,12.119,12.866a63.766,63.766,0,0,1,2.6,6.82c.709,2.2,1.351,4.526,1.933,6.93.081.331.159.663.237,1,.519,2.226.988,4.518,1.412,6.849.232,1.279.452,2.571.656,3.868q.324,2.04.606,4.1c.313,2.281.59,4.573.833,6.852,1.259,11.731,1.658,23.106,1.761,31,.041,3.079.037,5.628.02,7.461C5052.6,965.7,5053.984,966.1,5055.387,966.522Z" fill="#9bbcb6"/>
    </g>
    <g id="Group_13796" data-name="Group 13796">
      <g id="Group_13795" data-name="Group 13795">
        <path id="Path_6109" data-name="Path 6109" d="M5170.549,971.5c-11.371.062-23.944-.282-38.595-.945-5.7-.259-11.71-.566-18.087-.917-12.735-6.492-29.532-8.628-40.422-9.314q-1.288-.082-2.566-.144a120.494,120.494,0,0,1-19.611-2.325c-15.439-3.39-28.414-11.448-25.484-31.334a51.707,51.707,0,0,1,1.507-6.814q.757-2.626,1.837-5.486.406-1.074.86-2.183,1.1-2.681,2.484-5.565a49.577,49.577,0,0,1,5.862-1.284c1.968-.338,4.442-.694,7.429-1a190.833,190.833,0,0,1,30.347-.4,63.722,63.722,0,0,1,9.342,1.4,153.516,153.516,0,0,1,22.31,6.849c4.922,1.9,9.983,4.094,14.965,6.553,3.9,1.923,7.753,4.006,11.455,6.236,10.106,6.084,19.095,13.251,24.883,21.18C5164.287,953.162,5167.908,961.61,5170.549,971.5Z" fill="#436e8e"/>
      </g>
    </g>
    <g id="Group_13798" data-name="Group 13798">
      <g id="Group_13797" data-name="Group 13797">
        <path id="Path_6110" data-name="Path 6110" d="M5131.954,970.555c-5.7-.259-11.71-.566-18.087-.917-12.191-.671-25.719-1.5-40.944-2.456-5.208-.327-11.114-.54-17.535-.66h0c-3.068-.057-6.253-.093-9.534-.112h0c-13.5-3.782-28.407-6.912-40.041-12.291-12.626-5.836-21.4-14.319-20.344-29.16a41.858,41.858,0,0,1,1.076-6.787,58.817,58.817,0,0,1,1.84-6.134q.51-1.431,1.114-2.924s.613.165,1.869.44c2.448.538,7.336,1.5,14.883,2.484,5.943.777,13.535,1.57,22.881,2.183q1.643.109,3.357.209,8.055.473,15.583,1.476a167.941,167.941,0,0,1,20.964,4.1h0q6.073,1.614,11.636,3.656,3.741,1.371,7.254,2.939c15.79,7.036,28.1,16.969,36.654,29.6A66.229,66.229,0,0,1,5131.954,970.555Z" fill="#436e8e"/>
      </g>
    </g>
    <g id="Group_13799" data-name="Group 13799">
      <path id="Path_6111" data-name="Path 6111" d="M4997.28,816.226s25.875-22.779,54.964-16.16c13.891,3.161,24.493,12.946,29.412,32.521,5.382,21.417,4.756,53.48,13.612,75.158,0,0-40.27,27.408-104.036,30.745-8.817.461-10.273-7.059-10.02-21.968C4981.788,882.492,4983.7,838.257,4997.28,816.226Z" fill="#6f4975"/>
    </g>
    <g id="Group_13800" data-name="Group 13800">
      <path id="Path_6112" data-name="Path 6112" d="M4978.537,821.315l29.921,5.625s58.134,29.55,72.781,29.672,14.9-24.667,14.9-24.667a77.494,77.494,0,0,0-36.573-29.513,71.981,71.981,0,0,0-7.317-2.364,53.786,53.786,0,0,0-13.01-2.179C4989.845,797.323,4978.537,821.315,4978.537,821.315Z" fill="#6f4975"/>
    </g>
    <g id="Group_13801" data-name="Group 13801">
      <path id="Path_6113" data-name="Path 6113" d="M4978.537,821.315c-.648,2.359,5.624,6.295,14.008,8.792s15.706,2.608,16.353.249-5.624-6.3-14.009-8.791S4979.184,818.957,4978.537,821.315Z" fill="#2f1a31"/>
    </g>
    <g id="Group_13825" data-name="Group 13825">
      <g id="Group_13802" data-name="Group 13802">
        <path id="Path_6114" data-name="Path 6114" d="M5052.125,799.864l-.009-.319c.036,0,3.632-.127,5.083-2.26.754-1.107.808-2.574.162-4.359-.3-.839-.591-1.614-.845-2.3-1.785-4.8-2.453-6.6-1-9.93l.292.127c-1.4,3.211-.793,4.844,1.008,9.692.254.684.542,1.459.846,2.3.683,1.888.617,3.452-.2,4.648a5.62,5.62,0,0,1-3.264,2.064A9.729,9.729,0,0,1,5052.125,799.864Z" fill="#e28569"/>
      </g>
      <g id="Group_13803" data-name="Group 13803">
        <path id="Path_6115" data-name="Path 6115" d="M5055.661,780.763a16.183,16.183,0,0,0,.093,11.518c2.4,6.379-2.68,11.26-7.065,8.089s-6.886,5.939-13.183-2.491C5031.192,792.1,5055.661,780.763,5055.661,780.763Z" fill="#e28569"/>
      </g>
      <g id="Group_13804" data-name="Group 13804">
        <path id="Path_6116" data-name="Path 6116" d="M5029.161,795.437l4.9-6.992,1.431-2.043,8.415-12.016-3.819,13.468-2.294,8.084-.646,2.277c-.535,1.886,4.382,5.632.19,7.5-4.8,2.135-13.533-1.751-15.43-6.913C5021.906,798.8,5027.578,797.7,5029.161,795.437Z" fill="#f7b686"/>
      </g>
      <g id="Group_13805" data-name="Group 13805">
        <path id="Path_6117" data-name="Path 6117" d="M5034.092,788.216c-.014.076-.024.152-.033.229-.588,4.475,3.7,7.512,3.7,7.512l.034-.019,2.294-8.084c-1.332-.826-3.272-1.795-4.6-1.452A1.965,1.965,0,0,0,5034.092,788.216Z" fill="#2f1a31"/>
      </g>
      <g id="Group_13806" data-name="Group 13806">
        <path id="Path_6118" data-name="Path 6118" d="M5056.918,779.365c1.815-8.753-2.465-17.04-9.56-18.511s-14.316,4.432-16.131,13.184,2.465,17.041,9.56,18.512S5055.1,788.118,5056.918,779.365Z" fill="#f7b686"/>
      </g>
      <g id="Group_13807" data-name="Group 13807">
        <path id="Path_6119" data-name="Path 6119" d="M5032.449,776.785c1.167,1.691,3.172,2.255,4.479,1.26s1.419-3.172.252-4.863-3.172-2.256-4.478-1.261S5031.282,775.094,5032.449,776.785Z" fill="#f7b686"/>
      </g>
      <g id="Group_13809" data-name="Group 13809">
        <g id="Group_13808" data-name="Group 13808">
          <path id="Path_6120" data-name="Path 6120" d="M5045.283,777.112a.293.293,0,0,0,.231-.133.3.3,0,0,0-.083-.413,3.23,3.23,0,0,0-3.957.059.3.3,0,0,0-.076.415.329.329,0,0,0,.416.076,5.112,5.112,0,0,1,3.287-.053A.289.289,0,0,0,5045.283,777.112Z" fill="#060633"/>
        </g>
      </g>
      <g id="Group_13810" data-name="Group 13810">
        <path id="Path_6121" data-name="Path 6121" d="M5042.306,779.844a1.155,1.155,0,0,0,.608,1.472c.5.121,1.044-.342,1.211-1.034a1.156,1.156,0,0,0-.608-1.473C5043.015,778.688,5042.472,779.152,5042.306,779.844Z" fill="#060633"/>
      </g>
      <g id="Group_13812" data-name="Group 13812">
        <g id="Group_13811" data-name="Group 13811">
          <path id="Path_6122" data-name="Path 6122" d="M5055.4,780.8a.3.3,0,0,0,.345-.449,3.233,3.233,0,0,0-3.682-1.453.3.3,0,0,0-.228.356.327.327,0,0,0,.355.227,5.118,5.118,0,0,1,3.06,1.2A.3.3,0,0,0,5055.4,780.8Z" fill="#060633"/>
        </g>
      </g>
      <g id="Group_13813" data-name="Group 13813">
        <path id="Path_6123" data-name="Path 6123" d="M5051.6,782.189a.984.984,0,1,0,1.514-.5A1.156,1.156,0,0,0,5051.6,782.189Z" fill="#060633"/>
      </g>
      <g id="Group_13814" data-name="Group 13814">
        <path id="Path_6124" data-name="Path 6124" d="M5052.218,764.857s-1.418,5.441-8.479,4.955-12.4,1.437-12.5,6.575,8.769,21.392-.19,23.68-5.623-8.46-14.8-8.57-12.768-10.734-.834-17.793c8.036-4.753,8.78-24.172,31.386-18.648s10.5,21.962,10.5,21.962S5050.945,770.927,5052.218,764.857Z" fill="#ff854f"/>
      </g>
      <g id="Group_13815" data-name="Group 13815">
        <path id="Path_6125" data-name="Path 6125" d="M5029.57,800.437l-.034-.186a4.3,4.3,0,0,0,3.281-2.2c2.153-4.171-2.091-13.225-5.191-19.836-.6-1.271-1.158-2.471-1.634-3.546-1.656-3.736-1.057-7.66,1.563-10.24,2.91-2.866,7.422-3.4,11.776-1.39a13.547,13.547,0,0,0,9.4,1.065,8.574,8.574,0,0,0,3.292-1.753l.132.136a8.579,8.579,0,0,1-3.359,1.8c-2,.6-5.276.9-9.541-1.071s-8.711-1.456-11.563,1.353c-2.6,2.562-3.171,6.311-1.523,10.029.475,1.073,1.037,2.272,1.633,3.541,3.116,6.647,7.384,15.75,5.188,20A4.483,4.483,0,0,1,5029.57,800.437Z" fill="#fff"/>
      </g>
      <g id="Group_13817" data-name="Group 13817">
        <g id="Group_13816" data-name="Group 13816">
          <path id="Path_6126" data-name="Path 6126" d="M5049.1,783.992c.077-.038.155-.083.232-.121a13.749,13.749,0,0,1,.953-3.953,2.666,2.666,0,0,0-.4-.37A14.023,14.023,0,0,0,5049.1,783.992Zm-.19-1.33a13.412,13.412,0,0,0-.171,1.525c-.13,2.411.456,4.579,1.758,5.823.012.009.017.016.028.024a3.769,3.769,0,0,0,1.819.966,4.054,4.054,0,0,0,1.427.033,5.22,5.22,0,0,0,1.444-.447,6.8,6.8,0,0,0,1.186-.7,11.164,11.164,0,0,0,3.083-3.608c2.452-4.351,2.483-9.746.075-12.033a3.781,3.781,0,0,0-2.35-1.057,4.572,4.572,0,0,0-.917.035,5.111,5.111,0,0,0-1.07.286q-.289.114-.585.266a10.3,10.3,0,0,0-4.064,4.2q-.137.235-.255.476c-.008.011-.012.03-.021.048h-.006c-.166.331-.32.671-.462,1.012A14.552,14.552,0,0,0,5048.914,782.662Zm10.627,2.217c-.167.376-.359.747-.563,1.111a10.805,10.805,0,0,1-2.777,3.319,6.628,6.628,0,0,1-1.121.7,4.728,4.728,0,0,1-1.394.449,3.283,3.283,0,0,1-2.7-.8.709.709,0,0,1-.079-.065c-1.253-1.2-1.778-3.348-1.57-5.727a13.749,13.749,0,0,1,.953-3.953c.144-.354.3-.706.482-1.054.1-.2.2-.4.314-.6a9.565,9.565,0,0,1,3.891-4.015,4.99,4.99,0,0,1,1.407-.453,3.361,3.361,0,0,1,.882-.016,2.266,2.266,0,0,1,.456.072l.013,0a3.073,3.073,0,0,1,1.092.521,4.187,4.187,0,0,1,.337.282c2.027,1.927,2.138,6.306.389,10.187A.062.062,0,0,1,5059.541,784.879Z" fill="#6f4975"/>
        </g>
      </g>
      <g id="Group_13818" data-name="Group 13818" opacity="0.3">
        <path id="Path_6127" data-name="Path 6127" d="M5036.345,771.869c-1.969,4.311-1.329,9.511,1.429,11.614s6.59.313,8.559-4,1.329-9.511-1.429-11.615S5038.314,767.557,5036.345,771.869Z" fill="#fff"/>
      </g>
      <g id="Group_13819" data-name="Group 13819" opacity="0.3">
        <path id="Path_6128" data-name="Path 6128" d="M5050.377,778.329c-1.976,4.331-1.622,9.546.791,11.647s5.969.292,7.945-4.039,1.622-9.546-.79-11.647S5052.353,774,5050.377,778.329Z" fill="#fff"/>
      </g>
      <g id="Group_13821" data-name="Group 13821">
        <g id="Group_13820" data-name="Group 13820">
          <path id="Path_6129" data-name="Path 6129" d="M5035.183,774.418a12.8,12.8,0,0,0-.047,4.1,7.929,7.929,0,0,0,2.471,4.853,2.581,2.581,0,0,0,.264.219,4.788,4.788,0,0,0,1.951.905,4.46,4.46,0,0,0,1.193.082,5.481,5.481,0,0,0,1.021-.146c2.175-.553,4.128-2.4,5.365-5.086.112-.244.219-.5.314-.749.137-.349.255-.7.36-1.055a11.876,11.876,0,0,0-.387-8.17,6.471,6.471,0,0,0-1.952-2.511,4.821,4.821,0,0,0-4.18-.831,8.265,8.265,0,0,0-4.971,4.325c-.132.241-.258.495-.379.751-.124.274-.242.549-.34.821A13.271,13.271,0,0,0,5035.183,774.418Zm8.5,8.622a5.749,5.749,0,0,1-1.8.828,4.6,4.6,0,0,1-.7.112,4.287,4.287,0,0,1-2.97-.849c-.1-.074-.192-.148-.282-.228a7.3,7.3,0,0,1-2.211-4.378,12.356,12.356,0,0,1,.628-6.256c.11-.309.24-.614.374-.912a11.074,11.074,0,0,1,.641-1.194,7.105,7.105,0,0,1,.523-.765.026.026,0,0,1,.009-.018,8.858,8.858,0,0,1,1-1.144,6.365,6.365,0,0,1,2.8-1.64,4.262,4.262,0,0,1,1.967-.055,4.323,4.323,0,0,1,1.716.781,5.907,5.907,0,0,1,1.746,2.219,11.275,11.275,0,0,1,.367,7.91,10.789,10.789,0,0,1-.373,1.059c-.073.2-.158.4-.25.593a9.571,9.571,0,0,1-3.132,3.895A.2.2,0,0,1,5043.687,783.04Z" fill="#6f4975"/>
        </g>
      </g>
      <g id="Group_13823" data-name="Group 13823">
        <g id="Group_13822" data-name="Group 13822">
          <path id="Path_6130" data-name="Path 6130" d="M5050.632,780.148a.541.541,0,0,1-.313-.194h0a4.919,4.919,0,0,0-3.689-1.472.564.564,0,0,1-.54-.551.535.535,0,0,1,.55-.533,5.881,5.881,0,0,1,4.532,1.871.548.548,0,0,1-.09.765A.529.529,0,0,1,5050.632,780.148Z" fill="#6f4975"/>
        </g>
      </g>
      <g id="Group_13824" data-name="Group 13824">
        <path id="Path_6131" data-name="Path 6131" d="M5045.19,789.122a5.556,5.556,0,0,1-2.761-.8,8.031,8.031,0,0,1-1.706-1.311.428.428,0,0,1,.624-.587h0c.024.025,2.372,2.476,4.859,1.692a.428.428,0,1,1,.257.817A4.2,4.2,0,0,1,5045.19,789.122Z" fill="#2f1a31"/>
      </g>
    </g>
    <g id="Group_13835" data-name="Group 13835">
      <g id="Group_13827" data-name="Group 13827">
        <g id="Group_13826" data-name="Group 13826">
          <path id="Path_6132" data-name="Path 6132" d="M5187.475,971.06q-2.741.135-5.556.228l-4.551-50.324-.612-6.765-.2-2.161-.512-5.672,8.982,4.448.05,1.224.036.909,0,.038.276,6.8Z" fill="#2f1a31"/>
        </g>
      </g>
      <g id="Group_13829" data-name="Group 13829">
        <g id="Group_13828" data-name="Group 13828">
          <path id="Path_6133" data-name="Path 6133" d="M4944.394,906.366l-.513,5.672-.229,2.543v0l-.614,6.772-4.032,44.6-.247,2.725q-2.91.072-5.7.138l.316-7.763,1.654-40.793.276-6.806.058-1.42.05-1.224Z" fill="#2f1a31"/>
        </g>
      </g>
      <g id="Group_13830" data-name="Group 13830">
        <ellipse id="Ellipse_87" data-name="Ellipse 87" cx="148.511" cy="14.849" rx="148.511" ry="14.849" transform="translate(4910.173 897.189)" fill="#74a1bd"/>
      </g>
      <g id="Group_13831" data-name="Group 13831">
        <rect id="Rectangle_570" data-name="Rectangle 570" width="297.022" height="6.848" transform="translate(4910.173 905.19)" fill="#74a1bd"/>
      </g>
      <g id="Group_13832" data-name="Group 13832">
        <ellipse id="Ellipse_88" data-name="Ellipse 88" cx="148.511" cy="14.849" rx="148.511" ry="14.849" transform="translate(4910.173 890.342)" fill="#bed5dc"/>
      </g>
      <g id="Group_13833" data-name="Group 13833">
        <path id="Path_6134" data-name="Path 6134" d="M4952.345,916.017a.389.389,0,0,1-.048,0,262.918,262.918,0,0,1-29.665-4.388.461.461,0,0,1,.2-.9,262.158,262.158,0,0,0,29.555,4.371.461.461,0,0,1-.046.92Z" fill="#42428e"/>
      </g>
      <g id="Group_13834" data-name="Group 13834">
        <path id="Path_6135" data-name="Path 6135" d="M5182.009,913.927a.461.461,0,0,1-.071-.917c.145-.023,14.551-2.3,19.96-4.367a.462.462,0,1,1,.33.862c-5.5,2.1-19.551,4.323-20.147,4.416A.44.44,0,0,1,5182.009,913.927Z" fill="#42428e"/>
      </g>
    </g>
    <g id="Group_13844" data-name="Group 13844">
      <g id="Group_13836" data-name="Group 13836">
        <path id="Path_6136" data-name="Path 6136" d="M5117.421,801.343s-8.332,8.265-3.657,16.961,13.5,6.685,17.59,2.378S5117.421,801.343,5117.421,801.343Z" fill="#fff"/>
      </g>
      <g id="Group_13837" data-name="Group 13837">
        <path id="Path_6137" data-name="Path 6137" d="M5132.959,821.872a6.283,6.283,0,0,0,6.481-1.476c4.768-4.737,13.774-15.034,12.681-24.321-1.478-12.562-28.079-4.434-35.1,0C5110.305,800.317,5107.309,813.016,5132.959,821.872Z" fill="#96a7e2"/>
      </g>
      <g id="Group_13838" data-name="Group 13838">
        <path id="Path_6138" data-name="Path 6138" d="M5165.237,902.92s1.847-6.721,3.14-6.906,26.417-.554,27.156,0,3.14,6.792,2.955,6.906S5185.547,906.988,5165.237,902.92Z" fill="#6f4975"/>
      </g>
      <g id="Group_13839" data-name="Group 13839">
        <path id="Path_6139" data-name="Path 6139" d="M5195.738,896.18c0,.673-6.2,1.219-13.842,1.219s-13.842-.546-13.842-1.219,6.2-1.219,13.842-1.219S5195.738,895.507,5195.738,896.18Z" fill="#8d6096"/>
      </g>
      <g id="Group_13841" data-name="Group 13841">
        <g id="Group_13840" data-name="Group 13840">
          <path id="Path_6140" data-name="Path 6140" d="M5178.958,895.764l-4.71-54.064-28.069-29.371,1.416-1.458,29.173,28.324,7.655,56.276s-.276.663-2.9.666C5179.127,896.139,5178.958,895.764,5178.958,895.764Z" fill="#6f4975"/>
        </g>
      </g>
      <g id="Group_13842" data-name="Group 13842">
        <path id="Path_6141" data-name="Path 6141" d="M5143.992,811.1a2.9,2.9,0,1,1,2.9,2.9A2.895,2.895,0,0,1,5143.992,811.1Z" fill="#2f1a31"/>
      </g>
      <g id="Group_13843" data-name="Group 13843">
        <path id="Path_6142" data-name="Path 6142" d="M5171.7,840.837a3.5,3.5,0,1,1,3.5,3.495A3.5,3.5,0,0,1,5171.7,840.837Z" fill="#2f1a31"/>
      </g>
    </g>
    <g id="Group_13861" data-name="Group 13861">
      <g id="Group_13854" data-name="Group 13854">
        <g id="Group_13845" data-name="Group 13845">
          <path id="Path_6143" data-name="Path 6143" d="M4972.159,886.2l-19.27-.665-21.841.544-.057,1.645,21.126-.918a4.042,4.042,0,0,1,3.7,4.344h0a4.041,4.041,0,0,1-3.989,4.078l-21.069-.726-.042,1.214,41.066,1.417a5.248,5.248,0,0,0,5.179-5.295h0A5.247,5.247,0,0,0,4972.159,886.2Z" fill="#436e8e"/>
        </g>
        <g id="Group_13846" data-name="Group 13846">
          <path id="Path_6144" data-name="Path 6144" d="M4957.69,891.174h0a5.247,5.247,0,0,0-4.8-5.639l-21.841.544-.057,1.645,21.126-.918a4.042,4.042,0,0,1,3.7,4.344h0a4.041,4.041,0,0,1-3.989,4.078l-21.069-.726-.042,1.214,21.8.752A5.247,5.247,0,0,0,4957.69,891.174Z" fill="#436e8e"/>
        </g>
        <g id="Group_13847" data-name="Group 13847">
          <path id="Path_6145" data-name="Path 6145" d="M4952.117,886.81l-21.126.914h0c1.906.307,2.48,2.244,2.743,3.278.534,2.095-1.053,3.3-2.976,3.476v.028l21.069.727a4.042,4.042,0,0,0,3.989-4.079h0A4.043,4.043,0,0,0,4952.117,886.81Z" fill="#e6edff"/>
        </g>
        <g id="Group_13848" data-name="Group 13848">
          <rect id="Rectangle_571" data-name="Rectangle 571" width="0.115" height="17.016" transform="translate(4933.812 892.078) rotate(-88.025)" fill="#2f1a31"/>
        </g>
        <g id="Group_13850" data-name="Group 13850">
          <g id="Group_13849" data-name="Group 13849">
            <path id="Path_6146" data-name="Path 6146" d="M4955.641,895.314a.242.242,0,0,1-.191-.089.184.184,0,0,1,.063-.276,4.906,4.906,0,0,0,1.949-3.8,3.825,3.825,0,0,0-2-3.85.187.187,0,0,1-.095-.27.25.25,0,0,1,.311-.082,4.168,4.168,0,0,1,2.238,4.236,5.182,5.182,0,0,1-2.152,4.1A.262.262,0,0,1,4955.641,895.314Z" fill="#2f1a31"/>
          </g>
        </g>
        <g id="Group_13851" data-name="Group 13851">
          <rect id="Rectangle_572" data-name="Rectangle 572" width="13.066" height="0.115" transform="translate(4933.733 890.943) rotate(-0.882)" fill="#2f1a31"/>
        </g>
        <g id="Group_13853" data-name="Group 13853">
          <g id="Group_13852" data-name="Group 13852">
            <path id="Path_6147" data-name="Path 6147" d="M4962.439,894.824h-.008l-4.118-.142a.231.231,0,0,1-.194-.119.228.228,0,0,1,0-.226,12.413,12.413,0,0,0,1.135-2.9,4.729,4.729,0,0,0-.695-3.268.229.229,0,0,1-.01-.239.237.237,0,0,1,.209-.118l3.908.135a.225.225,0,0,1,.18.1,5.588,5.588,0,0,1-.235,6.7A.231.231,0,0,1,4962.439,894.824Zm-3.741-.589,3.635.126a5.02,5.02,0,0,0,.2-5.957l-3.378-.116a4.833,4.833,0,0,1,.544,3.263A13.12,13.12,0,0,1,4958.7,894.235Z" fill="#2f1a31"/>
          </g>
        </g>
      </g>
      <g id="Group_13860" data-name="Group 13860">
        <g id="Group_13855" data-name="Group 13855">
          <path id="Path_6148" data-name="Path 6148" d="M4931.2,895.827l19.281.02,21.808,1.32,0,1.646-21.08-1.668a4.042,4.042,0,0,0-3.851,4.209h0a4.044,4.044,0,0,0,3.842,4.218l21.082.022v1.216l-41.091-.044a5.247,5.247,0,0,1-4.987-5.475h0A5.247,5.247,0,0,1,4931.2,895.827Z" fill="#ff854f"/>
        </g>
        <g id="Group_13856" data-name="Group 13856">
          <path id="Path_6149" data-name="Path 6149" d="M4945.481,901.311h0a5.249,5.249,0,0,1,5-5.464l21.808,1.32,0,1.646-21.08-1.668a4.042,4.042,0,0,0-3.851,4.209h0a4.044,4.044,0,0,0,3.842,4.218l21.082.022v1.216l-21.809-.024A5.248,5.248,0,0,1,4945.481,901.311Z" fill="#e28569"/>
        </g>
        <g id="Group_13857" data-name="Group 13857">
          <path id="Path_6150" data-name="Path 6150" d="M4951.206,897.149l21.08,1.664h0c-1.915.239-2.557,2.154-2.857,3.178-.608,2.075.935,3.336,2.85,3.579v.029l-21.082-.023a4.043,4.043,0,0,1-3.842-4.217h0A4.044,4.044,0,0,1,4951.206,897.149Z" fill="#e6edff"/>
        </g>
        <g id="Group_13858" data-name="Group 13858">
          <path id="Path_6151" data-name="Path 6151" d="M4947.368,906.164a.229.229,0,0,1-.133-.043c-.074-.053-1.816-1.333-1.983-4.8a4.905,4.905,0,0,1,2.409-4.8.23.23,0,1,1,.2.413,4.46,4.46,0,0,0-2.152,4.365,7.236,7.236,0,0,0,.956,3.45,3.653,3.653,0,0,0,.836,1,.23.23,0,0,1-.135.417Z" fill="#2f1a31"/>
        </g>
        <g id="Group_13859" data-name="Group 13859">
          <path id="Path_6152" data-name="Path 6152" d="M4942.6,904.793h-1.18a1.663,1.663,0,0,1-1.493-.918,5.4,5.4,0,0,1,.025-5.122,1.648,1.648,0,0,1,1.452-.839h.931a1.67,1.67,0,0,1,1.626,2.064,3.434,3.434,0,0,0-.053,1.543c.077.363.175.735.292,1.1a1.671,1.671,0,0,1-1.6,2.168Zm-1.2-6.42a1.191,1.191,0,0,0-1.05.6,4.944,4.944,0,0,0-.016,4.693,1.2,1.2,0,0,0,1.082.665h1.179a1.207,1.207,0,0,0,.983-.5,1.19,1.19,0,0,0,.179-1.073c-.121-.383-.222-.769-.3-1.146a3.884,3.884,0,0,1,.056-1.749,1.193,1.193,0,0,0-.221-1.027,1.213,1.213,0,0,0-.958-.468h-.931Z" fill="#2f1a31"/>
        </g>
      </g>
    </g>
    <g id="Group_13867" data-name="Group 13867">
      <g id="Group_13862" data-name="Group 13862">
        <path id="Path_6153" data-name="Path 6153" d="M5168.813,849.371c-1.549-2.381-4.78-3.841-5.028-6.67-.092-1.049.256-2.2-.29-3.1-.6-.99-1.969-1.146-3.121-1.03a4.778,4.778,0,0,0-3.388,1.519c-.982,1.268-.764,3.053-1.073,4.626-.747,3.792-4.482,6.123-7.891,7.945-1.77.946-3.627,1.95-4.7,3.645-1.821,2.867-.817,6.592-.969,9.985a14.16,14.16,0,0,1-2.6,7.533c-.92,1.292-1.874,2.56-2.91,3.76-1.831,2.121-1.055,4.952,1.607,5.356a3.576,3.576,0,0,0,3.55-1.325c1.887-3.056,7.415-3.32,9.475-3.616s4.218-1.317,5-3.247c.733-1.818.052-3.894.349-5.831.412-2.687,2.6-4.7,4.649-6.48l5.283-4.585a10.74,10.74,0,0,0,2.213-2.35A5.861,5.861,0,0,0,5168.813,849.371Zm-5.232,6.323c-1.872,2.08-4.835,2.273-7.283,3.27-1.9.775-3.549,1.714-5.69,1.612-1.386-.065-3.087-.486-3.129-2.141-.073-2.86,3.818-3.362,5.838-3.484a9.473,9.473,0,0,0,3.675-.73,4.837,4.837,0,0,0,2.012-1.873,7.612,7.612,0,0,1,.992-1.622,2.429,2.429,0,0,1,1.088-.615,2.929,2.929,0,0,1,3.192,1.287A3.775,3.775,0,0,1,5163.581,855.694Z" fill="#fff"/>
      </g>
      <g id="Group_13863" data-name="Group 13863">
        <path id="Path_6154" data-name="Path 6154" d="M5126.779,885.684s2.881,20.232,4.987,20.419,10,.609,12.4,0,3.733-20.71,3.069-21.194S5125.9,883.377,5126.779,885.684Z" fill="#ff854f"/>
      </g>
      <g id="Group_13864" data-name="Group 13864">
        <path id="Path_6155" data-name="Path 6155" d="M5146.609,897.922l-.938-1.84c2.587-1.319,6.384-3.89,6.726-5.474a.566.566,0,0,0-.121-.534c-1.693-2.117-5.556.211-5.595.234l-1.083-1.758a11.283,11.283,0,0,1,2.9-1.2c2.925-.724,4.544.38,5.387,1.433a2.626,2.626,0,0,1,.526,2.261C5153.746,894.147,5147.795,897.318,5146.609,897.922Z" fill="#e28569"/>
      </g>
      <g id="Group_13865" data-name="Group 13865">
        <path id="Path_6156" data-name="Path 6156" d="M5133.492,895.544c-.689-3.749,2.785-5.24,5.447-5.24a4.487,4.487,0,0,1,4.651,4.59c0,2.662-2.617,5.469-5.279,5.469S5133.973,898.162,5133.492,895.544Z" fill="#d3745e"/>
      </g>
      <g id="Group_13866" data-name="Group 13866">
        <path id="Path_6157" data-name="Path 6157" d="M5137.745,899.718c-2.448,0-4.384-1.929-4.932-4.914h0a4.02,4.02,0,0,1,.79-3.456,6.365,6.365,0,0,1,4.77-1.919,4.58,4.58,0,0,1,4.765,4.7C5143.138,896.9,5140.416,899.718,5137.745,899.718Zm-4.707-4.955c.64,3.484,2.851,4.725,4.707,4.725a5.7,5.7,0,0,0,5.164-5.355,4.358,4.358,0,0,0-4.536-4.475,6.135,6.135,0,0,0-4.594,1.837,3.8,3.8,0,0,0-.741,3.268Z" fill="#fff"/>
      </g>
    </g>
    <g id="Group_13871" data-name="Group 13871">
      <g id="Group_13868" data-name="Group 13868">
        <path id="Path_6158" data-name="Path 6158" d="M4942.037,871.241a6.364,6.364,0,0,1,6.041-4.438S4947.683,872.69,4942.037,871.241Z" fill="#436e8e"/>
      </g>
      <g id="Group_13869" data-name="Group 13869">
        <path id="Path_6159" data-name="Path 6159" d="M4944.217,874.135a.4.4,0,0,1-.453-.04,8.951,8.951,0,0,1-2.826-4.908.4.4,0,1,1,.782-.127,8.242,8.242,0,0,0,2.555,4.428.4.4,0,0,1,.048.559A.407.407,0,0,1,4944.217,874.135Z" fill="#2f1a31"/>
      </g>
      <g id="Group_13870" data-name="Group 13870">
        <path id="Path_6160" data-name="Path 6160" d="M4949.984,871.172a5.5,5.5,0,0,1,1.972,1.922,9.944,9.944,0,0,1,.284,9.411c-1.6,2.951-5.645,4.3-8.781,3.439a8.075,8.075,0,0,1-5.726-6.557c-.347-2.593.88-5,3.561-5.565.936-.2,2-.028,2.842-.582,1.3-.86,2.47-2.394,4.148-2.485A3.214,3.214,0,0,1,4949.984,871.172Z" fill="#ff854f"/>
      </g>
    </g>
    <g id="Group_13880" data-name="Group 13880">
      <g id="Group_13872" data-name="Group 13872">
        <path id="Path_6161" data-name="Path 6161" d="M5094.547,851.4s-.187.692-.433.668c-.4-.039-.437-.665-.437-.665Z" fill="#2f1a31"/>
      </g>
      <g id="Group_13874" data-name="Group 13874">
        <g id="Group_13873" data-name="Group 13873">
          <path id="Path_6162" data-name="Path 6162" d="M5097.093,820.524h-.03a.5.5,0,0,1-.468-.527l.821-13.728a.643.643,0,0,0-.413-.206l-2.587-.35a.5.5,0,1,1,.133-.988l2.6.351.026.005c.774.146,1.27.643,1.235,1.236l-.822,13.739A.5.5,0,0,1,5097.093,820.524Z" fill="#e28569"/>
        </g>
      </g>
      <g id="Group_13875" data-name="Group 13875">
        <path id="Path_6163" data-name="Path 6163" d="M5090.7,847.467l.3-43.677c0-.417.556-.754,1.236-.757l1.674-.007c.675,0,1.227.325,1.242.739l1.533,43.6Z" fill="#2f1a31"/>
      </g>
      <g id="Group_13877" data-name="Group 13877">
        <g id="Group_13876" data-name="Group 13876">
          <path id="Path_6164" data-name="Path 6164" d="M5094.048,803.025l-.3-2.725c-.025-.227-.333-.4-.7-.4h-.311c-.389,0-.7.2-.7.434l.011,2.7Z" fill="#e28569"/>
        </g>
      </g>
      <g id="Group_13879" data-name="Group 13879">
        <g id="Group_13878" data-name="Group 13878">
          <path id="Path_6165" data-name="Path 6165" d="M5095.385,809.986a12.232,12.232,0,0,0-4.461.019l-.034,2.782a8.749,8.749,0,0,1,4.6-.019Z" fill="#e28569"/>
        </g>
      </g>
    </g>
    <g id="Group_13882" data-name="Group 13882">
      <g id="Group_13881" data-name="Group 13881">
        <path id="Path_6166" data-name="Path 6166" d="M5107.652,833.7s1.861,5.9-2.674,7.138c-6.757,1.841-15.2,5.951-15.472,2.161-.1-1.333,8.365-5.89,8.365-5.89s-11.686,5.829-12.237,2.493c-.462-2.8,10.5-7.657,10.5-7.657s-9,3.273-9.738.079c-.778-3.382,9.466-6.07,9.466-6.07s-9.076,3.087-9-.714c.075-3.931,7.449-3.83,10.534-4.787,2.915-.905,4.569.775,5.431,3.791,0,0,2.53,2.62,2.617,4.7.033.8.95,1.315,1.2,1.831A21.639,21.639,0,0,1,5107.652,833.7Z" fill="#f7b686"/>
      </g>
    </g>
    <g id="Group_13889" data-name="Group 13889">
      <g id="Group_13883" data-name="Group 13883">
        <path id="Path_6167" data-name="Path 6167" d="M5040.351,844.367l5.279,54.651a4.46,4.46,0,0,0,4.051,4.014l40.693,3.548a4.475,4.475,0,0,0,1.239-.065l8.076-1.571a4.462,4.462,0,0,0,2.262-1.184l18.852-18.387a4.459,4.459,0,0,0,1.328-3.581l-3.726-42.583a4.459,4.459,0,0,0-7.061-3.22l-16.338,11.861a4.454,4.454,0,0,1-1.481.7l-8.162,2.154a4.45,4.45,0,0,1-2.412-.039l-36.887-11A4.458,4.458,0,0,0,5040.351,844.367Z" fill="#ff854f"/>
      </g>
      <g id="Group_13884" data-name="Group 13884">
        <path id="Path_6168" data-name="Path 6168" d="M5084.151,851.026l10.18-2.686L5101,904.69s-2.5,3.889-10,1.944Z" fill="#bc614b"/>
      </g>
      <g id="Group_13886" data-name="Group 13886">
        <g id="Group_13885" data-name="Group 13885">
          <path id="Path_6169" data-name="Path 6169" d="M5048.769,840.473s3.16-2.2,10.451-.743,18.124,4.687,22.5,5.208,6.042,2.5,6.042,2.5-1.3-3.364,3.882-5.171,14.659-7.21,17.843-4.928l-15.154,11-10.18,2.686Z" fill="#fff"/>
        </g>
      </g>
      <g id="Group_13888" data-name="Group 13888">
        <g id="Group_13887" data-name="Group 13887">
          <path id="Path_6170" data-name="Path 6170" d="M5087.349,847.509c0-.02-.477-2.03-6.193-3.195-1.4-.284-3.3-.8-5.5-1.393-7.427-2.006-18.65-5.036-24.022-2.738l-.327-.767c5.637-2.41,17.028.665,24.566,2.7,2.19.592,4.082,1.1,5.453,1.382,6.292,1.281,6.811,3.617,6.85,3.879l-.824.121.412-.06Z" fill="#fff"/>
        </g>
      </g>
    </g>
    <g id="Group_13899" data-name="Group 13899">
      <g id="Group_13891" data-name="Group 13891">
        <g id="Group_13890" data-name="Group 13890">
          <path id="Path_6171" data-name="Path 6171" d="M5039.579,904.354l.289-17.657a4.549,4.549,0,0,0-4.224-4.608c-12.241-.876-20.809-4.672-25.5-11.31-6.518-9.218-5.831-23.536-4.015-33.465.93-5.081-.747-8.479-6.885-11.736a42,42,0,0,0-11.791-4.014c-2.609-.444-5.2.6-5.871,3.163a107.646,107.646,0,0,0-3.067,17.566c-1.544,17.411,1.815,32.557,9.713,43.8,9.694,13.8,25.321,21.433,46.494,22.73A4.565,4.565,0,0,0,5039.579,904.354Z" fill="#f7b686"/>
        </g>
      </g>
      <g id="Group_13892" data-name="Group 13892" opacity="0.5">
        <path id="Path_6172" data-name="Path 6172" d="M4994.577,881.479a7.058,7.058,0,0,1-5.2-2.847h0a7.839,7.839,0,0,1-1.777-4.185,3.683,3.683,0,0,1,5.047-4.065,7.83,7.83,0,0,1,3.711,2.628c2.181,2.708,2.39,6.173.465,7.723A3.522,3.522,0,0,1,4994.577,881.479Zm-3.4-10.143a2.38,2.38,0,0,0-1.522.5,2.818,2.818,0,0,0-.873,2.52,6.632,6.632,0,0,0,1.518,3.537h0c1.742,2.163,4.389,3.043,5.781,1.922s1.1-3.9-.644-6.058a6.645,6.645,0,0,0-3.133-2.238A3.9,3.9,0,0,0,4991.178,871.336Z" fill="#e08b65"/>
      </g>
      <g id="Group_13898" data-name="Group 13898">
        <g id="Group_13894" data-name="Group 13894">
          <g id="Group_13893" data-name="Group 13893">
            <path id="Path_6173" data-name="Path 6173" d="M5031.149,880.969s4.3-13.01,11.659-16.2,19.172-1.689,15.028,1.254a52.836,52.836,0,0,1-10.476,5.242s13.761-4.274,13.367-.623-12.4,7.254-12.4,7.254,16.781-3.782,15.292-.453-14.257,6.111-14.257,6.111,15.753-2.895,13.933.931-13.034,2.308-13.428,5.959-3.2,18.021-13.478,18.165Z" fill="#f7b686"/>
          </g>
        </g>
        <g id="Group_13895" data-name="Group 13895">
          <path id="Path_6174" data-name="Path 6174" d="M5042.453,874.293l-.534-.254c1.132-2.383,5.222-3.036,5.4-3.062l.089.585C5047.365,871.568,5043.451,872.194,5042.453,874.293Z" fill="#dd8964"/>
        </g>
        <g id="Group_13896" data-name="Group 13896">
          <path id="Path_6175" data-name="Path 6175" d="M5042.388,881.536l-.474-.355a10.413,10.413,0,0,1,6.375-3.575l.079.587C5048.329,878.2,5044.47,878.751,5042.388,881.536Z" fill="#dd8964"/>
        </g>
        <g id="Group_13897" data-name="Group 13897">
          <path id="Path_6176" data-name="Path 6176" d="M5043.838,886.91l-.554-.208c.992-2.642,5.829-3.405,6.034-3.437l.089.586C5049.36,883.858,5044.709,884.593,5043.838,886.91Z" fill="#dd8964"/>
        </g>
      </g>
    </g>
    <g id="Group_13900" data-name="Group 13900">
      <path id="Path_6177" data-name="Path 6177" d="M5122.3,970.111l-.295-.063a38.072,38.072,0,0,0,.541-8.544,33.4,33.4,0,0,0-5.26-17.124c-6.925-10.259-22.615-14.365-22.773-14.405l.075-.293a53.941,53.941,0,0,1,8.819,3.334c8.024,3.839,12.113,8.207,14.13,11.2a33.713,33.713,0,0,1,5.312,17.289A38.247,38.247,0,0,1,5122.3,970.111Z" fill="#2f1a31"/>
    </g>
  </g>
</svg>
